<?xml version="1.0" encoding="utf-8"?>
<!-- Generator: Adobe Illustrator 23.0.2, SVG Export Plug-In . SVG Version: 6.00 Build 0)  -->
<svg version="1.1" id="Слой_1" xmlns="http://www.w3.org/2000/svg" xmlns:xlink="http://www.w3.org/1999/xlink" x="0px" y="0px"
	 viewBox="0 0 204.93 117.47" style="enable-background:new 0 0 204.93 117.47;" xml:space="preserve">
<style type="text/css">
	.st0{fill:#69797D;}
</style>
<path class="st0" d="M202.52,105.24c-0.25-0.54-0.48-0.97-0.69-1.33c-3.54-6.38-10.32-14.21-20.31-23.5l-0.21-0.22l-0.11-0.1
	l-0.11-0.11h-0.1c-4.54-4.33-7.41-7.23-8.62-8.72c-2.2-2.84-2.7-5.71-1.49-8.62c0.85-2.2,4.04-6.84,9.57-13.93
	c2.91-3.75,5.21-6.77,6.91-9.04c12.27-16.31,17.58-26.73,15.95-31.27l-0.63-1.06c-0.43-0.64-1.52-1.22-3.29-1.75
	c-1.77-0.54-4.04-0.62-6.81-0.27l-30.63,0.21c-0.49-0.17-1.2-0.16-2.12,0.06c-0.92,0.21-1.39,0.32-1.39,0.32l-0.53,0.27l-0.42,0.32
	c-0.36,0.21-0.75,0.58-1.17,1.11c-0.42,0.53-0.78,1.15-1.06,1.86c-3.34,8.58-7.12,16.55-11.38,23.92c-2.63,4.4-5.03,8.21-7.23,11.43
	c-2.2,3.22-4.04,5.6-5.53,7.12c-1.49,1.52-2.84,2.75-4.04,3.66c-1.21,0.93-2.13,1.31-2.77,1.17c-0.64-0.15-1.24-0.29-1.81-0.43
	c-1-0.64-1.79-1.5-2.39-2.61c-0.61-1.1-1.01-2.48-1.22-4.15c-0.21-1.66-0.34-3.1-0.38-4.3c-0.03-1.2-0.01-2.91,0.06-5.1
	c0.07-2.2,0.11-3.69,0.11-4.47c0-2.7,0.05-5.62,0.15-8.78c0.11-3.16,0.2-5.65,0.27-7.5c0.07-1.84,0.11-3.79,0.11-5.85
	c0-2.05-0.13-3.66-0.38-4.84c-0.24-1.17-0.62-2.3-1.12-3.4c-0.5-1.1-1.22-1.95-2.18-2.55c-0.96-0.61-2.14-1.08-3.56-1.44
	c-3.76-0.85-8.55-1.31-14.36-1.38C84.44-0.13,75.97,0.73,72.21,2.57c-1.49,0.78-2.84,1.84-4.04,3.19c-1.27,1.56-1.45,2.41-0.54,2.55
	c4.26,0.64,7.27,2.16,9.04,4.57l0.64,1.28c0.5,0.92,1,2.55,1.49,4.89c0.5,2.34,0.82,4.93,0.95,7.76c0.36,5.18,0.36,9.6,0,13.3
	c-0.35,3.68-0.69,6.56-1.01,8.61c-0.32,2.06-0.8,3.72-1.43,5c-0.64,1.28-1.06,2.05-1.28,2.34c-0.21,0.28-0.39,0.46-0.53,0.53
	c-0.92,0.36-1.88,0.54-2.87,0.54c-0.99,0-2.19-0.5-3.61-1.49c-1.41-0.99-2.89-2.36-4.41-4.1c-1.52-1.73-3.24-4.16-5.16-7.28
	c-1.91-3.12-3.89-6.8-5.95-11.06l-1.7-3.08c-1.07-1.98-2.52-4.87-4.36-8.67c-1.84-3.79-3.47-7.46-4.89-11.01
	c-0.57-1.48-1.42-2.62-2.56-3.4l-0.53-0.32c-0.36-0.28-0.92-0.58-1.7-0.91c-0.78-0.32-1.59-0.55-2.45-0.69L6.17,5.33
	c-2.98,0-5,0.68-6.06,2.02l-0.43,0.64c-0.21,0.36-0.32,0.92-0.32,1.7c0,0.78,0.21,1.74,0.64,2.87c4.26,9.99,8.88,19.64,13.88,28.92
	c5,9.29,9.34,16.77,13.02,22.44c3.69,5.67,7.44,11.03,11.27,16.05c3.83,5.03,6.37,8.26,7.6,9.68c1.24,1.42,2.22,2.48,2.93,3.19
	l2.66,2.55c1.7,1.7,4.2,3.74,7.5,6.11c3.29,2.38,6.95,4.72,10.95,7.02c4.01,2.3,8.67,4.18,13.99,5.63
	c5.32,1.45,10.49,2.04,15.53,1.75h12.23c2.48-0.21,4.36-0.99,5.63-2.34l0.42-0.53c0.29-0.43,0.55-1.08,0.8-1.97
	c0.25-0.88,0.38-1.86,0.38-2.92c-0.07-3.05,0.16-5.79,0.69-8.24c0.53-2.44,1.13-4.28,1.81-5.53c0.68-1.24,1.43-2.29,2.29-3.14
	c0.85-0.85,1.45-1.36,1.81-1.54c0.35-0.18,0.63-0.3,0.85-0.38c1.7-0.57,3.7-0.01,6.01,1.65c2.3,1.67,4.46,3.72,6.49,6.17
	c2.02,2.45,4.45,5.19,7.28,8.24c2.84,3.05,5.32,5.32,7.44,6.81l2.13,1.27c1.42,0.85,3.26,1.63,5.53,2.34
	c2.27,0.71,4.25,0.89,5.95,0.54l27.23-0.43c2.69,0,4.79-0.45,6.27-1.33c1.49-0.89,2.37-1.86,2.66-2.92c0.29-1.07,0.3-2.27,0.06-3.62
	C203.01,106.71,202.77,105.77,202.52,105.24L202.52,105.24z M202.52,105.24"/>
</svg>
