<?xml version="1.0" encoding="utf-8"?>
<!-- Generator: Adobe Illustrator 23.0.2, SVG Export Plug-In . SVG Version: 6.00 Build 0)  -->
<svg version="1.1" id="Слой_1" xmlns="http://www.w3.org/2000/svg" xmlns:xlink="http://www.w3.org/1999/xlink" x="0px" y="0px"
	 viewBox="0 0 612 533.62" style="enable-background:new 0 0 612 533.62;" xml:space="preserve">
<style type="text/css">
	.st0{fill:#00665A;}
</style>
<g>
	<path class="st0" d="M106.11,153.23c0,4.41,3.58,8,8,8h31.99c4.41,0,8-3.58,8-8c0-4.41-3.58-8-8-8H114.1
		C109.68,145.23,106.11,148.81,106.11,153.23L106.11,153.23z M106.11,153.23"/>
	<path class="st0" d="M513.89,145.23h-31.98c-4.42,0-8,3.58-8,8c0,4.41,3.58,8,8,8h31.98c4.41,0,8-3.58,8-8
		C521.89,148.81,518.3,145.23,513.89,145.23L513.89,145.23z M513.89,145.23"/>
	<path class="st0" d="M146.09,129.24c3.23,0,6.14-1.95,7.38-4.93c1.24-2.99,0.55-6.43-1.73-8.71L135.75,99.6
		c-2.01-2.07-4.98-2.91-7.78-2.18c-2.79,0.73-4.98,2.91-5.71,5.71c-0.73,2.79,0.1,5.77,2.18,7.78l15.99,15.99
		C141.93,128.4,143.96,129.24,146.09,129.24L146.09,129.24z M146.09,129.24"/>
	<path class="st0" d="M481.91,129.24c2.12,0,4.16-0.84,5.65-2.34l15.99-15.99c2.08-2.01,2.91-4.98,2.18-7.78
		c-0.73-2.8-2.92-4.98-5.71-5.71c-2.8-0.73-5.77,0.1-7.77,2.18l-15.99,15.99c-2.29,2.29-2.97,5.73-1.74,8.71
		C475.76,127.29,478.67,129.24,481.91,129.24L481.91,129.24z M481.91,129.24"/>
	<path class="st0" d="M492.25,206.86c3.13,3.03,8.13,2.98,11.21-0.1c3.09-3.09,3.13-8.07,0.1-11.21l-15.99-15.99
		c-3.14-3.03-8.12-2.98-11.21,0.1c-3.09,3.09-3.13,8.07-0.1,11.21L492.25,206.86z M492.25,206.86"/>
	<path class="st0" d="M140.43,179.56l-15.99,15.99c-2.08,2.01-2.91,4.98-2.18,7.78c0.73,2.8,2.92,4.98,5.71,5.71
		c2.8,0.73,5.76-0.11,7.78-2.18l15.99-15.99c3.03-3.14,2.99-8.13-0.1-11.21C148.56,176.57,143.57,176.53,140.43,179.56
		L140.43,179.56z M140.43,179.56"/>
	<path class="st0" d="M350.14,264.19c2.68,1.46,5.96,1.27,8.46-0.5c2.49-1.77,3.75-4.8,3.25-7.82l-7.32-43.92l29.08-29.07
		c2.11-2.12,2.87-5.24,1.95-8.09c-0.91-2.85-3.34-4.95-6.29-5.45l-43.54-7.26l-14.32-35.8c-1.21-3.04-4.15-5.04-7.43-5.04
		c-3.28,0-6.22,2-7.43,5.04l-14.32,35.8l-43.54,7.26c-2.95,0.5-5.38,2.59-6.29,5.45c-0.91,2.85-0.16,5.97,1.96,8.09l29.07,29.07
		l-7.32,43.92c-0.49,3.02,0.77,6.05,3.26,7.82c2.49,1.77,5.77,1.97,8.46,0.5L314,244.43L350.14,264.19z M284.58,242.28l5.29-31.77
		c0.42-2.54-0.41-5.14-2.23-6.96l-21-21l32.66-5.44c2.76-0.46,5.07-2.32,6.11-4.92l8.59-21.42l8.56,21.42
		c1.04,2.59,3.35,4.46,6.11,4.92l32.66,5.44l-21,21c-1.82,1.83-2.65,4.42-2.23,6.96l5.29,31.77L317.8,228.3
		c-2.38-1.3-5.27-1.3-7.66,0L284.58,242.28z M284.58,242.28"/>
	<path class="st0" d="M178.07,289.15c-13.25,0-23.98-10.74-23.98-23.98c0-4.42-3.58-8-8-8c-4.42,0-8,3.58-8,8
		c0,13.25-10.74,23.98-23.99,23.98c-4.42,0-8,3.58-8,8c0,4.42,3.58,8,8,8c13.25,0,23.99,10.74,23.99,23.99c0,4.41,3.57,8,8,8
		c4.41,0,8-3.58,8-8c0-13.25,10.73-23.99,23.98-23.99c4.42,0,8-3.58,8-8C186.06,292.74,182.48,289.15,178.07,289.15L178.07,289.15z
		 M146.09,305.4c-2.33-3.14-5.11-5.91-8.25-8.25c3.14-2.32,5.91-5.11,8.25-8.24c2.32,3.13,5.11,5.91,8.24,8.24
		C151.19,299.48,148.41,302.26,146.09,305.4L146.09,305.4z M146.09,305.4"/>
	<path class="st0" d="M513.89,289.15c-13.25,0-23.99-10.74-23.99-23.98c0-4.42-3.58-8-8-8s-8,3.58-8,8
		c0,13.25-10.74,23.98-23.98,23.98c-4.42,0-8,3.58-8,8c0,4.42,3.57,8,8,8c13.25,0,23.98,10.74,23.98,23.99c0,4.41,3.58,8,8,8
		s8-3.58,8-8c0-13.25,10.74-23.99,23.99-23.99c4.41,0,8-3.58,8-8C521.89,292.74,518.3,289.15,513.89,289.15L513.89,289.15z
		 M481.91,305.4c-2.33-3.14-5.11-5.91-8.25-8.25c3.14-2.32,5.92-5.11,8.25-8.24c2.33,3.13,5.11,5.91,8.24,8.24
		C487.02,299.48,484.23,302.26,481.91,305.4L481.91,305.4z M481.91,305.4"/>
	<g>
		<path class="st0" d="M314,89.26c-61.83,0-111.94,50.12-111.94,111.94c0,61.82,50.11,111.94,111.94,111.94
			c61.8-0.07,111.88-50.14,111.94-111.94C425.94,139.38,375.82,89.26,314,89.26z M314,297.15c-52.97-0.06-95.9-42.98-95.95-95.95
			c0-52.99,42.96-95.95,95.95-95.95s95.95,42.96,95.95,95.95C409.95,254.19,366.99,297.15,314,297.15z"/>
		<path class="st0" d="M450.21,154.49C430.33,96.21,375.57,57.03,314,57.03c-61.58,0-116.34,39.18-136.22,97.46
			s-0.48,122.75,48.27,160.39V468.6c0,3.01,1.69,5.76,4.37,7.13c2.68,1.37,5.91,1.11,8.34-0.66l73.32-53.51
			c0.18-0.13,1.13-0.8,1.32-0.91c0.38-0.22,0.84-0.22,1.21,0c0.19,0.1,1.14,0.8,1.32,0.91l73.32,53.51c1.37,1,3.02,1.54,4.71,1.54
			c4.42,0,8-3.58,8-8V314.87C450.69,277.24,470.09,212.77,450.21,154.49z M274.02,429.53l-31.98,23.34V401.1c0,4.42,3.57,8,8,8h8
			c5.41-0.16,10.79-1.03,15.99-2.55V429.53z M242.04,393.1v-67.45c9.72,5.68,20.09,10.18,30.88,13.43
			c-3.03,1.82-5.85,3.98-8.39,6.45l-6.11,6.09C248.29,363.12,242.5,377.79,242.04,393.1z M258.03,393.1
			c0.47-11.07,4.59-21.68,11.7-30.17l6.1-6.1c8.5-7.11,19.1-11.23,30.17-11.7c-0.48,11.07-4.59,21.67-11.71,30.17l-6.1,6.1
			C279.7,388.51,269.09,392.63,258.03,393.1z M337.98,417.88l-0.66-0.48l-11.64-8.49c-1.52-1.34-3.25-2.43-5.12-3.2
			c-4.2-1.76-8.94-1.76-13.14,0c-1.87,0.77-3.6,1.86-5.12,3.2l-11.63,8.49l-0.66,0.48v-18c3.46-1.98,6.64-4.4,9.49-7.2l6.1-6.09
			c3.36-3.47,6.19-7.42,8.39-11.72c2.2,4.31,5.02,8.27,8.39,11.74l6.1,6.09c2.84,2.79,6.03,5.21,9.49,7.2V417.88z M333.7,375.28
			c-7.11-8.49-11.23-19.09-11.7-30.15c11.07,0.48,21.67,4.59,30.17,11.7l6.1,6.1c7.12,8.49,11.23,19.1,11.71,30.17
			c-11.07-0.47-21.68-4.59-30.17-11.7v-0.02L333.7,375.28z M385.96,452.87l-31.98-23.34v-22.99c5.2,1.53,10.57,2.39,15.99,2.55h8
			c4.42,0,8-3.58,8-8V452.87z M385.96,393.1c-0.46-15.32-6.26-29.99-16.39-41.48l-6.1-6.09c-2.54-2.47-5.36-4.63-8.39-6.45
			c10.79-3.24,21.16-7.75,30.88-13.43V393.1z M314,329.13c-70.62-0.08-127.85-57.31-127.93-127.93
			c0-70.65,57.28-127.93,127.93-127.93c70.65,0,127.93,57.28,127.93,127.93C441.93,271.86,384.65,329.13,314,329.13z"/>
	</g>
</g>
</svg>
