<?xml version="1.0" encoding="utf-8"?>
<!-- Generator: Adobe Illustrator 23.0.2, SVG Export Plug-In . SVG Version: 6.00 Build 0)  -->
<svg version="1.1" id="Слой_1" xmlns="http://www.w3.org/2000/svg" xmlns:xlink="http://www.w3.org/1999/xlink" x="0px" y="0px"
	 viewBox="0 0 117.32 117.47" style="enable-background:new 0 0 117.32 117.47;" xml:space="preserve">
<style type="text/css">
	.st0{fill:#69797D;}
</style>
<path class="st0" d="M80.66,0.15H36.66C16.42,0.15,0,16.57,0,36.81v43.99c0,20.24,16.42,36.66,36.66,36.66h43.99
	c20.24,0,36.66-16.42,36.66-36.66V36.81C117.32,16.57,100.9,0.15,80.66,0.15z M106.32,80.81c0,14.15-11.51,25.66-25.66,25.66H36.66
	C22.51,106.47,11,94.96,11,80.81V36.81c0-14.15,11.51-25.66,25.66-25.66h43.99c14.15,0,25.66,11.51,25.66,25.66V80.81z"/>
<path class="st0" d="M58.66,29.48c-16.2,0-29.33,13.13-29.33,29.33s13.13,29.33,29.33,29.33s29.33-13.13,29.33-29.33
	S74.86,29.48,58.66,29.48z M58.66,77.14c-10.1,0-18.33-8.23-18.33-18.33c0-10.11,8.23-18.33,18.33-18.33s18.33,8.22,18.33,18.33
	C76.99,68.91,68.76,77.14,58.66,77.14z"/>
<ellipse transform="matrix(0.9732 -0.2298 0.2298 0.9732 -3.8549 21.4509)" class="st0" cx="90.19" cy="27.28" rx="3.91" ry="3.91"/>
</svg>
