<?xml version="1.0" encoding="utf-8"?>
<!-- Generator: Adobe Illustrator 23.0.2, SVG Export Plug-In . SVG Version: 6.00 Build 0)  -->
<svg version="1.1" id="Слой_1" xmlns="http://www.w3.org/2000/svg" xmlns:xlink="http://www.w3.org/1999/xlink" x="0px" y="0px"
	 viewBox="0 0 86.27 117.47" style="enable-background:new 0 0 86.27 117.47;" xml:space="preserve">
<style type="text/css">
	.st0{fill:#69797D;}
</style>
<path class="st0" d="M76.22,0.02L61.01,0C43.92,0,32.87,11.33,32.87,28.87v13.31h-15.3c-1.32,0-2.39,1.07-2.39,2.39v19.29
	c0,1.32,1.07,2.39,2.39,2.39h15.3v48.67c0,1.32,1.07,2.39,2.4,2.39h19.95c1.32,0,2.4-1.07,2.4-2.39V66.25h17.88
	c1.32,0,2.39-1.07,2.39-2.39l0.01-19.29c0-0.63-0.26-1.24-0.7-1.69c-0.45-0.45-1.05-0.7-1.69-0.7H57.61V30.9
	c0-5.42,1.29-8.18,8.36-8.18l10.25-0.01c1.32,0,2.39-1.07,2.39-2.39V2.42C78.6,1.1,77.54,0.03,76.22,0.02L76.22,0.02z M76.22,0.02"
	/>
</svg>
