<?xml version="1.0" encoding="utf-8"?>
<!-- Generator: Adobe Illustrator 23.0.2, SVG Export Plug-In . SVG Version: 6.00 Build 0)  -->
<svg version="1.1" id="Слой_1" xmlns="http://www.w3.org/2000/svg" xmlns:xlink="http://www.w3.org/1999/xlink" x="0px" y="0px"
	 viewBox="0 0 612 533.62" style="enable-background:new 0 0 612 533.62;" xml:space="preserve">
<style type="text/css">
	.st0{fill:#00665A;}
</style>
<path class="st0" d="M580.8,93.67c-2.09-2.06-5.11-2.85-7.93-2.07c-6.99,1.92-13.81,3.78-20.48,5.6
	c-38.68,10.57-72.05,19.69-100.33,28.94c-0.15,0.04-0.29,0.09-0.43,0.14c-41.58,13.64-72.08,27.59-92.11,46.91
	c-36.27,34.98-37.17,84.45-37.16,89.45c-0.17,3-0.89,22.59,7.79,43.17c2.44,5.78,5.75,11.94,10.27,17.9
	c-9.47,9.15-25.21,26.52-34.4,48.39c-9.19-21.86-24.93-39.24-34.4-48.39c4.51-5.96,7.83-12.12,10.27-17.9
	c8.68-20.58,7.96-40.16,7.79-43.17c0-5-0.89-54.47-37.16-89.45c-20.03-19.32-50.54-33.27-92.12-46.91c-0.14-0.05-0.28-0.1-0.42-0.14
	c-28.28-9.26-61.65-18.38-100.33-28.95c-6.67-1.82-13.49-3.69-20.48-5.6c-2.82-0.77-5.85,0.02-7.93,2.07
	c-2.08,2.06-2.91,5.07-2.18,7.91c0,0,12.59,48.31,25.14,96.35c2.25,8.63,4.54,17.17,6.99,25.58c0.05,0.19,0.1,0.38,0.16,0.56
	c8.56,29.38,19,56.99,36.1,79.9c25.5,34.16,61.83,52.11,105.3,52.11c1.56,0,3.14-0.02,4.72-0.07c0.17-0.01,0.33-0.01,0.5-0.03
	c23.79-2.15,40.57-10.18,52.4-20.29c8.46,8.22,22.69,23.91,30.66,43.05c3.9,9.37,5.88,18.56,5.88,27.34v44.18
	c0,4.53,3.67,8.2,8.2,8.2c0.31,0,0.62-0.02,0.93-0.06c0.3,0.03,0.61,0.06,0.93,0.06c4.53,0,8.2-3.67,8.2-8.2v-44.18
	c0-8.78,1.98-17.97,5.88-27.34c7.97-19.14,22.2-34.83,30.66-43.05c11.84,10.12,28.61,18.14,52.4,20.29c0.17,0.02,0.33,0.02,0.5,0.03
	c1.58,0.05,3.15,0.07,4.72,0.07c43.46,0,79.8-17.95,105.3-52.11c17.1-22.91,27.54-50.51,36.1-79.89c0.06-0.19,0.12-0.38,0.17-0.57
	c2.44-8.4,4.73-16.95,6.98-25.58c12.55-48.04,25.14-96.35,25.14-96.35C583.71,98.74,582.89,95.73,580.8,93.67z M273.25,262.77
	c0,0.22,0,0.47,0.02,0.69c0.12,1.75,1.58,27.67-13.71,48.9l-31.02-31.34c0.6-1.14,0.94-2.43,0.94-3.8v-101.8
	c4.27,3.05,8.14,6.24,11.62,9.59C273.31,216.07,273.25,262.32,273.25,262.77z M100.48,278.64c-8.42-14.83-14.83-31.44-20.35-48.99
	h71.45c0.59,0,1.17-0.07,1.73-0.19c0.63,0.39,1.31,0.71,2.04,0.92l47.75,48.25H100.48z M213.07,265.38l-47.21-47.71v-72.25
	c18.33,6.35,34.06,12.81,47.23,19.89c-0.01,0.12-0.02,0.24-0.02,0.36V265.38z M149.46,201.1l-84.55-85.44
	c32.09,8.78,60.27,16.58,84.55,24.33V201.1z M52.45,126.39l85.95,86.86H75.28c-1.8-6.41-3.53-12.91-5.24-19.46
	C63.62,169.22,57.2,144.6,52.45,126.39z M206.7,339.61c-40.04,1.09-72.14-13.89-95.45-44.57h108.1l28.92,29.23
	C238.58,332.03,225.2,337.9,206.7,339.61z M511.52,278.64H408.89l47.75-48.25c0.73-0.21,1.41-0.53,2.04-0.92
	c0.56,0.12,1.14,0.19,1.73,0.19h71.45C526.35,247.19,519.93,263.8,511.52,278.64z M398.93,265.38v-99.71c0-0.12-0.01-0.24-0.02-0.36
	c13.17-7.08,28.9-13.54,47.23-19.89v72.25L398.93,265.38z M462.54,139.99c24.28-7.75,52.45-15.55,84.55-24.33l-84.55,85.44V139.99z
	 M338.73,263.48c0.02-0.24,0.02-0.47,0.02-0.71c-0.01-0.46-0.23-46.55,32.15-77.77c3.47-3.35,7.35-6.53,11.62-9.59v101.8
	c0,1.37,0.34,2.67,0.94,3.8l-31.02,31.34C337.15,291.14,338.61,265.22,338.73,263.48z M405.3,339.61
	c-18.5-1.71-31.89-7.58-41.57-15.34l28.92-29.23h108.1C477.45,325.72,445.34,340.71,405.3,339.61z M541.97,193.78
	c-1.71,6.55-3.44,13.04-5.24,19.46H473.6l85.95-86.86C554.8,144.6,548.38,169.22,541.97,193.78z"/>
</svg>
