<?xml version="1.0" encoding="utf-8"?>
<!-- Generator: Adobe Illustrator 23.0.2, SVG Export Plug-In . SVG Version: 6.00 Build 0)  -->
<svg version="1.1" id="Слой_1" xmlns="http://www.w3.org/2000/svg" xmlns:xlink="http://www.w3.org/1999/xlink" x="0px" y="0px"
	 viewBox="0 0 152.89 107.89" style="enable-background:new 0 0 152.89 107.89;" xml:space="preserve">
<style type="text/css">
	.st0{fill:#69797D;}
</style>
<path class="st0" d="M146.98,9.5c-5.52-6.56-15.71-9.24-35.18-9.24H41.14c-19.91,0-30.28,2.85-35.78,9.84C0,16.91,0,26.95,0,40.84
	v26.48c0,26.91,6.36,40.58,41.14,40.58h70.66c16.88,0,26.24-2.36,32.29-8.15c6.21-5.94,8.85-15.64,8.85-32.42V40.84
	C152.94,26.19,152.52,16.09,146.98,9.5L146.98,9.5z M98.19,57.74L66.1,74.5c-0.72,0.38-1.5,0.56-2.29,0.56
	c-0.89,0-1.77-0.24-2.56-0.71c-1.48-0.89-2.38-2.5-2.38-4.22V36.7c0-1.72,0.9-3.32,2.37-4.22c1.47-0.9,3.31-0.96,4.83-0.16
	l32.09,16.66c1.63,0.85,2.66,2.53,2.66,4.37C100.84,55.2,99.82,56.88,98.19,57.74L98.19,57.74z M98.19,57.74"/>
</svg>
