<?xml version="1.0" encoding="utf-8"?>
<!-- Generator: Adobe Illustrator 23.0.2, SVG Export Plug-In . SVG Version: 6.00 Build 0)  -->
<svg version="1.1" id="Слой_1" xmlns="http://www.w3.org/2000/svg" xmlns:xlink="http://www.w3.org/1999/xlink" x="0px" y="0px"
	 viewBox="0 0 612 525.62" style="enable-background:new 0 0 612 525.62;" xml:space="preserve">
<style type="text/css">
	.st0{fill:#00665A;}
</style>
<path class="st0" d="M185.78,350.38h-57.04l-13.03-91.25c-1.98-12.93-13.9-21.91-26.87-20.27c-12.97,1.65-22.27,13.33-20.96,26.34
	l10.84,97.56c1.33,12.05,8.07,22.83,18.31,29.32L66.13,500.12l15.39,4.4l30.5-106.76c2.11,0.37,4.25,0.57,6.39,0.6h59.37v103.96
	h15.99V396.89c11.01-3.88,17.61-15.13,15.63-26.63C207.43,358.76,197.45,350.36,185.78,350.38L185.78,350.38z M185.78,382.37h-67.33
	c-12.22-0.01-22.48-9.19-23.83-21.34l-10.83-97.56c-0.27-2.29,0.46-4.6,1.99-6.33c1.54-1.73,3.74-2.72,6.06-2.72
	c4.02,0.03,7.41,3,8,6.98l14.06,98.12c0.57,3.94,3.94,6.86,7.92,6.86h63.97c4.41,0,8,3.58,8,8
	C193.77,378.79,190.19,382.37,185.78,382.37L185.78,382.37z M185.78,382.37"/>
<path class="st0" d="M514.44,392.08c10.23-6.48,16.96-17.25,18.29-29.29l10.84-97.56c1.32-13.02-7.97-24.71-20.95-26.36
	c-12.98-1.65-24.91,7.35-26.88,20.28l-13.02,91.23h-57.04c-11.67-0.02-21.65,8.38-23.63,19.88c-1.98,11.5,4.63,22.75,15.64,26.63
	v105.43h15.99V398.37h59.34c2.14-0.03,4.28-0.23,6.39-0.6l30.5,106.76l15.39-4.4L514.44,392.08z M493.01,382.37h-67.33
	c-4.41,0-8-3.58-8-8c0-4.42,3.58-8,8-8h63.97c3.98,0,7.36-2.92,7.92-6.86l14.02-98.12c0.58-3.98,3.98-6.95,8-6.98
	c2.31,0,4.52,0.98,6.06,2.71c1.54,1.72,2.27,4.02,2.02,6.31l-10.81,97.59C515.49,373.17,505.23,382.37,493.01,382.37L493.01,382.37z
	 M493.01,382.37"/>
<path class="st0" d="M353.71,454.34h-23.99V286.41h95.96c4.42,0,8-3.58,8-8v-31.99c0-4.41-3.58-8-8-8h-239.9c-4.42,0-8,3.58-8,8
	v31.99c0,4.41,3.58,8,8,8h95.96v167.93h-23.99c-4.41,0-8,3.58-8,8v31.99c0,4.41,3.58,8,8,8h95.96c4.41,0,8-3.58,8-8v-31.99
	C361.7,457.92,358.12,454.34,353.71,454.34L353.71,454.34z M193.77,270.42v-16h223.91v16H193.77z M313.72,286.41v167.93h-15.99
	V286.41H313.72z M345.71,486.33h-79.97v-16h79.97V486.33z M345.71,486.33"/>
<path class="st0" d="M265.74,134.47h79.97c3.23,0,6.15-1.95,7.38-4.93c1.24-2.99,0.55-6.43-1.73-8.71l-37.64-37.64V22.52h-15.99
	v60.66l-37.64,37.64c-2.29,2.29-2.97,5.73-1.73,8.71C259.59,132.53,262.51,134.47,265.74,134.47L265.74,134.47z M305.73,97.8
	l20.68,20.68h-41.36L305.73,97.8z M305.73,97.8"/>
</svg>
