<?xml version="1.0" encoding="utf-8"?>
<!-- Generator: Adobe Illustrator 23.0.2, SVG Export Plug-In . SVG Version: 6.00 Build 0)  -->
<svg version="1.1" id="Слой_1" xmlns="http://www.w3.org/2000/svg" xmlns:xlink="http://www.w3.org/1999/xlink" x="0px" y="0px"
	 viewBox="0 0 612 533.62" style="enable-background:new 0 0 612 533.62;" xml:space="preserve">
<style type="text/css">
	.st0{fill:#00665A;}
</style>
<path class="st0" d="M537.24,306.84c-0.01-0.02-0.04-0.1-0.05-0.12l-0.06-0.13c-6.72-15.58-23.64-24-39.86-20.5
	c2.06-6.65,1.72-13.74-1.01-20.23c-3.08-7.34-8.84-13.02-16.21-16.01c-0.02-0.01-0.2-0.08-0.21-0.08
	c-14.43-5.73-30.99,0.74-37.72,14.73l-23.52,48.83l-38.12,13.34c-7.11,2.48-14.94,2.48-22.04,0l-1.09-0.38
	c48.01-26.75,99.71-72.26,99.71-120.52c0-14.32-3.36-27.99-9.74-39.96l0-0.03c0,0-8.18-17.44-25.56-27.62
	c-0.09-0.05-0.16-0.09-0.25-0.14c-9.34-5.61-19.73-8.56-30.39-8.56c-19.91,0-37.34,12.43-46.78,30.91
	c-9.44-18.48-26.87-30.91-46.78-30.91c-17.16,0-33.35,7.65-45.48,21.02l0,0c-0.02,0.02-0.03,0.04-0.05,0.06
	c-2.72,3.01-5.24,6.31-7.52,9.88c-6.48,9.86-9.85,19-10.94,22.29c-25.42-7.28-53.69-2.76-76.49,12.44l-71.81,47.84
	c-3.43,2.29-4.36,6.92-2.07,10.35c2.29,3.43,6.92,4.36,10.35,2.07l71.81-47.84c20.24-13.49,45.52-17,67.64-9.41
	c1.08,0.37,1.93,0.68,2.75,1l135.08,51.81c4.01,1.53,7.16,4.56,8.87,8.52c1.76,4.09,1.76,8.57-0.02,12.62
	c-3.28,7.51-11.92,11.32-19.68,8.66l-85.69-29.3c-6.85-2.34-14.28-2.05-20.93,0.81c-8.26,3.56-14.32,10.59-16.61,19.27
	c-3.86,14.58,4.28,29.91,18.53,34.9l98.2,34.32c10.27,3.59,21.6,3.59,31.89,0l112.59-39.4c10.05-3.52,21.21,1.38,25.46,11.21
	l0.03,0.08c2.12,5.02,2.16,10.57,0.1,15.61c-2.07,5.06-5.98,9-11.02,11.1l-60.12,25.08c-0.01,0-0.01,0.01-0.02,0.01l-87.14,36.35
	c-13.14,5.49-27.82,6.05-41.36,1.59l-153.05-50.43c-9.64-3.18-20.06-2.68-29.35,1.39l-6.07,2.66c-3.78,1.65-5.5,6.06-3.84,9.83
	c1.65,3.78,6.06,5.5,9.83,3.85l6.08-2.66c5.91-2.6,12.55-2.91,18.68-0.89l153.06,50.43c7.55,2.49,15.39,3.73,23.22,3.73
	c9.73,0,19.45-1.92,28.56-5.72l96.06-40.07l0,0l51.22-21.36c8.74-3.64,15.52-10.48,19.1-19.24
	C540.98,325.16,540.92,315.55,537.24,306.84z M260.24,292.35c-6.94-2.43-10.91-9.9-9.03-16.99c0.92-3.5,3.12-6.43,6.13-8.32
	c10.5,12.8,23.9,25.3,39.93,37.23c0.89,0.66,1.8,1.31,2.7,1.97L260.24,292.35z M344.34,316.36c-13.2-6.97-26.32-15.24-38.15-24.07
	c-10.09-7.51-19.22-15.42-27.08-23.42l76.06,26.01c15.06,5.16,31.83-2.22,38.19-16.8c3.4-7.76,3.42-16.7,0.05-24.51
	c-3.32-7.7-9.45-13.57-17.24-16.55L248.11,187.9c2.56-7.6,5.18-12.98,7.07-16.35c0.13-0.18,0.25-0.37,0.37-0.57
	c9.56-16.66,25.27-26.61,42.02-26.61c21.68,0,39.31,21.36,39.31,47.61c0,4.12,3.34,7.47,7.47,7.47c4.12,0,7.47-3.34,7.47-7.47
	c0-26.25,17.63-47.61,39.31-47.61c6.93,0,13.74,1.7,20.04,4.95c11.7,6.19,26.65,21.6,30.32,46.55c0.43,3.24,0.66,6.54,0.66,9.89
	C442.13,246.71,393.57,290.37,344.34,316.36z M482.54,282.99l-3.82,9.3l-40.18,14.06l17.04-35.38c3.35-6.96,11.59-10.18,18.75-7.33
	c0.01,0,0.1,0.04,0.11,0.04c3.66,1.49,6.52,4.31,8.06,7.96C484.03,275.3,484.05,279.33,482.54,282.99z"/>
</svg>
