<?xml version="1.0" encoding="utf-8"?>
<!-- Generator: Adobe Illustrator 23.0.2, SVG Export Plug-In . SVG Version: 6.00 Build 0)  -->
<svg version="1.1" id="Слой_1" xmlns="http://www.w3.org/2000/svg" xmlns:xlink="http://www.w3.org/1999/xlink" x="0px" y="0px"
	 viewBox="0 0 612 533.62" style="enable-background:new 0 0 612 533.62;" xml:space="preserve">
<style type="text/css">
	.st0{fill:#00665A;}
</style>
<g>
	<path class="st0" d="M573.77,393.08c22.16-4.52,38.23-24.21,38.23-46.82v-79.45c0-26.35-21.44-47.79-47.79-47.79h-31.98
		c-0.86,0-1.6-0.58-1.81-1.42l-9.57-38.31h-111.9l-9.57,38.31c-0.21,0.83-0.96,1.42-1.81,1.42h-14.55l-59.11,39.41
		c-0.31,0.2-0.67,0.31-1.03,0.31h-48.49c-0.79,0-1.49-0.5-1.76-1.24c-3.97-11.14-14.5-18.62-26.21-18.62h-39.72
		c-11.71,0-22.23,7.49-26.21,18.62c-0.27,0.74-0.97,1.24-1.76,1.24h-41.55c-1.03,0-1.86-0.83-1.86-1.86V167.5
		c0-9.63-2.89-18.94-8.37-26.93c-0.34-0.51-0.42-1.14-0.2-1.71l18.5-49.33V60.12H29.79v29.41l18.5,49.34c0.22,0.57,0.14,1.2-0.2,1.7
		c-5.47,7.98-8.37,17.29-8.37,26.93v91.56c0,0.86-0.58,1.6-1.42,1.81L0,270.45v72.17l38.31,9.57c0.83,0.21,1.42,0.96,1.42,1.81
		v51.84c0,3.03,0.56,6.07,1.73,9.3c0.2,0.57,0.11,1.2-0.24,1.7c-0.35,0.5-0.92,0.79-1.53,0.79H27.93C12.53,417.64,0,430.16,0,445.57
		v27.93h612v-27.93c0-15.41-12.53-27.93-27.93-27.93h-9.93c-1.03,0-1.86-0.83-1.86-1.86v-20.87
		C572.28,394.03,572.9,393.26,573.77,393.08z M39.72,333.53c0,0.58-0.26,1.12-0.72,1.48c-0.32,0.25-0.73,0.38-1.14,0.38
		c-0.15,0-0.3-0.01-0.45-0.05l-19.86-4.97c-0.83-0.21-1.42-0.96-1.42-1.81V284.5c0-0.86,0.58-1.6,1.42-1.81l19.86-4.98
		c0.55-0.14,1.14-0.01,1.59,0.35c0.46,0.35,0.72,0.89,0.72,1.46V333.53z M416.22,216.71l4.97-19.86c0.21-0.83,0.96-1.42,1.81-1.42
		h83.79c0.86,0,1.6,0.58,1.81,1.42l4.98,19.86c0.14,0.55,0.01,1.14-0.35,1.59c-0.35,0.46-0.89,0.72-1.46,0.72h-93.74
		c-0.58,0-1.12-0.26-1.48-0.72C416.21,217.85,416.09,217.25,416.22,216.71z M393.52,237.02c0-1.03,0.83-1.86,1.86-1.86h139.03
		c1.03,0,1.86,0.83,1.86,1.86v19.86c0,1.03-0.83,1.86-1.86,1.86H395.38c-1.03,0-1.86-0.83-1.86-1.86V237.02z M554.28,394.05
		c1.03,0,1.86,0.83,1.86,1.86v19.86c0,1.03-0.83,1.86-1.86,1.86H415.24c-1.03,0-1.86-0.83-1.86-1.86v-19.86
		c0-1.03,0.83-1.86,1.86-1.86H554.28z M393.52,276.74c0-1.03,0.83-1.86,1.86-1.86h139.03c1.03,0,1.86,0.83,1.86,1.86v19.86
		c0,1.03-0.83,1.86-1.86,1.86H395.38c-1.03,0-1.86-0.83-1.86-1.86V276.74z M393.52,316.47c0-1.03,0.83-1.86,1.86-1.86h139.03
		c1.03,0,1.86,0.83,1.86,1.86v19.86c0,1.03-0.83,1.86-1.86,1.86H395.38c-1.03,0-1.86-0.83-1.86-1.86V316.47z M393.52,356.19
		c0-1.03,0.83-1.86,1.86-1.86h139.03c1.03,0,1.86,0.83,1.86,1.86v19.86c0,1.03-0.83,1.86-1.86,1.86H395.38
		c-1.03,0-1.86-0.83-1.86-1.86V356.19z M333.93,272.12c0-0.62,0.31-1.2,0.83-1.55l39.72-26.48c0.57-0.38,1.3-0.42,1.91-0.1
		c0.61,0.32,0.98,0.96,0.98,1.64v121.79c0,0.68-0.37,1.32-0.98,1.64c-0.27,0.15-0.58,0.22-0.88,0.22c-0.36,0-0.72-0.11-1.03-0.32
		l-39.72-26.48c-0.52-0.35-0.83-0.93-0.83-1.55V272.12z M274.34,276.74c0-1.03,0.83-1.86,1.86-1.86h39.72
		c1.03,0,1.86,0.83,1.86,1.86v59.59c0,1.03-0.83,1.86-1.86,1.86h-39.72c-1.03,0-1.86-0.83-1.86-1.86V276.74z M274.34,356.19
		c0-1.03,0.83-1.86,1.86-1.86h46.64c0.37,0,0.73,0.11,1.04,0.31L383,394.05h12.38c1.03,0,1.86,0.83,1.86,1.86v19.86
		c0,1.03-0.83,1.86-1.86,1.86H276.21c-1.03,0-1.86-0.83-1.86-1.86V356.19z M194.9,266.81c0-6.5,5.29-11.79,11.79-11.79h39.72
		c6.5,0,11.79,5.29,11.79,11.79v148.97c0,1.03-0.83,1.86-1.86,1.86h-59.59c-1.03,0-1.86-0.83-1.86-1.86V266.81z M135.31,276.74
		c0-1.03,0.83-1.86,1.86-1.86h39.72c1.03,0,1.86,0.83,1.86,1.86v59.59c0,1.03-0.83,1.86-1.86,1.86h-39.72
		c-1.03,0-1.86-0.83-1.86-1.86V276.74z M133.58,415.14c1.17-3.23,1.73-6.27,1.73-9.3v-49.66c0-1.03,0.83-1.86,1.86-1.86h39.72
		c1.03,0,1.86,0.83,1.86,1.86v59.59c0,1.03-0.83,1.86-1.86,1.86h-41.55c-0.61,0-1.18-0.3-1.53-0.79
		C133.47,416.35,133.39,415.71,133.58,415.14z M46.06,86.9c-0.09-0.21-0.12-0.43-0.12-0.66v-8.12c0-1.03,0.83-1.86,1.86-1.86h79.45
		c1.03,0,1.86,0.83,1.86,1.86v8.12c0,0.22-0.04,0.45-0.12,0.66l-14.51,38.71c-0.2,0.52-0.61,0.93-1.13,1.1
		c-0.2,0.07-0.41,0.11-0.61,0.11c-0.34,0-0.67-0.09-0.96-0.26c-7.65-4.54-15.82-6.85-24.26-6.85s-16.61,2.31-24.26,6.85
		c-0.47,0.27-1.04,0.34-1.56,0.15c-0.52-0.17-0.93-0.58-1.13-1.1L46.06,86.9z M117.31,358.05H57.72c-1.03,0-1.86-0.83-1.86-1.86
		v-19.86c0-1.03,0.83-1.86,1.86-1.86h59.59c1.03,0,1.86,0.83,1.86,1.86v19.86C119.17,357.22,118.34,358.05,117.31,358.05z
		 M119.17,376.05v29.79c0,6.5-5.29,11.79-11.79,11.79H67.66c-6.5,0-11.79-5.29-11.79-11.79v-29.79c0-1.03,0.83-1.86,1.86-1.86h59.59
		C118.34,374.19,119.17,375.02,119.17,376.05z M117.31,318.33H57.72c-1.03,0-1.86-0.83-1.86-1.86v-79.45c0-1.03,0.83-1.86,1.86-1.86
		h59.59c1.03,0,1.86,0.83,1.86,1.86v79.45C119.17,317.5,118.34,318.33,117.31,318.33z M117.31,219.02H57.72
		c-1.03,0-1.86-0.83-1.86-1.86v-19.86c0-1.03,0.83-1.86,1.86-1.86h59.59c1.03,0,1.86,0.83,1.86,1.86v19.86
		C119.17,218.19,118.34,219.02,117.31,219.02z M117.31,179.29H57.72c-1.03,0-1.86-0.83-1.86-1.86v-9.93
		c0-17.45,14.2-31.66,31.66-31.66s31.66,14.2,31.66,31.66v9.93C119.17,178.46,118.34,179.29,117.31,179.29z M584.07,433.78
		c6.5,0,11.79,5.29,11.79,11.79v9.93c0,1.03-0.83,1.86-1.86,1.86H18c-1.03,0-1.86-0.83-1.86-1.86v-9.93
		c0-6.5,5.29-11.79,11.79-11.79H584.07z M564.21,377.91h-9.93c-1.03,0-1.86-0.83-1.86-1.86V237.02c0-1.03,0.83-1.86,1.86-1.86h9.93
		c17.45,0,31.66,14.2,31.66,31.66v79.45C595.86,363.71,581.66,377.91,564.21,377.91z"/>
</g>
</svg>
