<?xml version="1.0" encoding="utf-8"?>
<!-- Generator: Adobe Illustrator 23.0.2, SVG Export Plug-In . SVG Version: 6.00 Build 0)  -->
<svg version="1.1" id="Режим_изоляции"
	 xmlns="http://www.w3.org/2000/svg" xmlns:xlink="http://www.w3.org/1999/xlink" x="0px" y="0px" viewBox="0 0 154.11 26.72"
	 style="enable-background:new 0 0 154.11 26.72;" xml:space="preserve">
<style type="text/css">
	.st0{fill:#FFFFFF;}
</style>
<g>
	<path class="st0" d="M18.53,13.47h6.42v9.99c-1.47,1.05-3.16,1.86-5.07,2.42c-1.91,0.56-3.82,0.84-5.73,0.84
		c-2.69,0-5.11-0.57-7.27-1.71c-2.15-1.14-3.84-2.72-5.07-4.75C0.61,18.23,0,15.93,0,13.36c0-2.57,0.61-4.87,1.84-6.9
		c1.22-2.03,2.92-3.61,5.1-4.75C9.11,0.57,11.57,0,14.31,0c2.4,0,4.55,0.4,6.46,1.21c1.91,0.81,3.5,1.97,4.77,3.49l-4.62,4.18
		c-1.74-1.91-3.82-2.86-6.24-2.86c-2.2,0-3.98,0.67-5.32,2c-1.35,1.33-2.02,3.11-2.02,5.34c0,1.42,0.31,2.69,0.92,3.8
		c0.61,1.11,1.47,1.98,2.57,2.61c1.1,0.62,2.36,0.94,3.78,0.94c1.4,0,2.7-0.28,3.93-0.84V13.47z"/>
	<path class="st0" d="M40.87,19.38h-3.3v6.83H30.3V0.51h11.08c2.33,0,4.34,0.39,6.06,1.16c1.71,0.77,3.03,1.87,3.96,3.3
		c0.93,1.43,1.39,3.11,1.39,5.05c0,1.86-0.43,3.48-1.3,4.86c-0.87,1.38-2.11,2.47-3.73,3.25l5.54,8.07h-7.78L40.87,19.38z
		 M44.32,7.23c-0.76-0.66-1.88-0.99-3.38-0.99h-3.38v7.52h3.38c1.49,0,2.62-0.32,3.38-0.97c0.76-0.65,1.14-1.57,1.14-2.77
		C45.46,8.82,45.08,7.89,44.32,7.23z"/>
	<path class="st0" d="M75.18,21.21H64.32l-2.02,4.99h-7.42L66.22,0.51h7.16l11.38,25.69H77.2L75.18,21.21z M73.05,15.86l-3.31-8.22
		l-3.3,8.22H73.05z"/>
	<path class="st0" d="M86.78,0.51h7.27v19.93h14.23v5.76h-21.5V0.51z"/>
	<path class="st0" d="M113.12,0.51h7.27v25.69h-7.27V0.51z"/>
	<path class="st0" d="M132.51,24.99c-2.17-1.15-3.87-2.74-5.1-4.77c-1.24-2.03-1.85-4.32-1.85-6.86s0.62-4.83,1.85-6.86
		c1.23-2.03,2.93-3.62,5.1-4.77c2.16-1.15,4.6-1.73,7.32-1.73c2.72,0,5.16,0.58,7.32,1.73c2.17,1.15,3.87,2.74,5.1,4.77
		s1.85,4.32,1.85,6.86s-0.62,4.83-1.85,6.86s-2.94,3.62-5.1,4.77c-2.16,1.15-4.6,1.73-7.32,1.73
		C137.11,26.72,134.67,26.15,132.51,24.99z M143.35,19.78c1.05-0.61,1.88-1.47,2.5-2.59c0.61-1.11,0.92-2.39,0.92-3.84
		s-0.31-2.72-0.92-3.84c-0.61-1.11-1.44-1.98-2.5-2.59c-1.05-0.61-2.23-0.92-3.52-0.92c-1.3,0-2.47,0.31-3.53,0.92
		c-1.05,0.61-1.88,1.47-2.5,2.59c-0.61,1.11-0.92,2.39-0.92,3.84s0.3,2.72,0.92,3.84c0.61,1.11,1.44,1.98,2.5,2.59
		c1.05,0.61,2.23,0.92,3.53,0.92C141.12,20.7,142.3,20.39,143.35,19.78z"/>
</g>
</svg>
