<?xml version="1.0" encoding="utf-8"?>
<!-- Generator: Adobe Illustrator 23.0.2, SVG Export Plug-In . SVG Version: 6.00 Build 0)  -->
<svg version="1.1" id="Layer_1" xmlns="http://www.w3.org/2000/svg" xmlns:xlink="http://www.w3.org/1999/xlink" x="0px" y="0px"
	 viewBox="0 0 94.62 58.81" style="enable-background:new 0 0 94.62 58.81;" xml:space="preserve">
<style type="text/css">
	.st0{fill:#898C8E;}
</style>
<g>
	<path class="st0" d="M28.4,13.95h6.42v9.99c-1.47,1.05-3.16,1.86-5.07,2.42c-1.91,0.56-3.82,0.84-5.73,0.84
		c-2.69,0-5.11-0.57-7.27-1.71c-2.15-1.14-3.84-2.72-5.07-4.75c-1.22-2.03-1.84-4.33-1.84-6.9c0-2.57,0.61-4.87,1.84-6.9
		c1.22-2.03,2.92-3.61,5.1-4.75c2.18-1.14,4.64-1.71,7.38-1.71c2.4,0,4.55,0.4,6.46,1.21c1.91,0.81,3.5,1.97,4.77,3.49l-4.62,4.18
		c-1.74-1.91-3.82-2.86-6.24-2.86c-2.2,0-3.98,0.67-5.32,2c-1.35,1.33-2.02,3.11-2.02,5.34c0,1.42,0.31,2.69,0.92,3.8
		c0.61,1.11,1.47,1.98,2.57,2.61c1.1,0.62,2.36,0.94,3.78,0.94c1.4,0,2.7-0.28,3.93-0.84V13.95z"/>
	<path class="st0" d="M50.74,19.86h-3.3v6.83h-7.27V0.99h11.08c2.33,0,4.34,0.39,6.06,1.16c1.71,0.77,3.03,1.87,3.96,3.3
		c0.93,1.43,1.39,3.11,1.39,5.05c0,1.86-0.43,3.48-1.3,4.86c-0.87,1.38-2.11,2.47-3.73,3.25l5.54,8.07H55.4L50.74,19.86z
		 M54.19,7.71c-0.76-0.66-1.88-0.99-3.38-0.99h-3.38v7.52h3.38c1.49,0,2.62-0.32,3.38-0.97c0.76-0.65,1.14-1.57,1.14-2.77
		C55.33,9.3,54.95,8.37,54.19,7.71z"/>
	<path class="st0" d="M85.05,21.69H74.18l-2.02,4.99h-7.42L76.09,0.99h7.16l11.38,25.69h-7.56L85.05,21.69z M82.92,16.33l-3.31-8.22
		l-3.3,8.22H82.92z"/>
	<path class="st0" d="M13.43,32.33h7.27v19.93h14.23v5.76h-21.5V32.33z"/>
	<path class="st0" d="M39.76,32.33h7.27v25.69h-7.27V32.33z"/>
	<path class="st0" d="M59.15,56.81c-2.17-1.15-3.87-2.74-5.1-4.77c-1.24-2.03-1.85-4.32-1.85-6.86c0-2.54,0.62-4.83,1.85-6.86
		c1.23-2.03,2.93-3.62,5.1-4.77c2.16-1.15,4.6-1.73,7.32-1.73c2.72,0,5.16,0.58,7.32,1.73c2.17,1.15,3.87,2.74,5.1,4.77
		s1.85,4.32,1.85,6.86c0,2.54-0.62,4.83-1.85,6.86s-2.94,3.62-5.1,4.77c-2.16,1.15-4.6,1.73-7.32,1.73
		C63.76,58.54,61.32,57.96,59.15,56.81z M70,51.6c1.05-0.61,1.88-1.47,2.5-2.59c0.61-1.11,0.92-2.39,0.92-3.84
		c0-1.44-0.31-2.72-0.92-3.84c-0.61-1.11-1.44-1.98-2.5-2.59c-1.05-0.61-2.23-0.92-3.52-0.92c-1.3,0-2.47,0.31-3.53,0.92
		c-1.05,0.61-1.88,1.47-2.5,2.59c-0.61,1.11-0.92,2.39-0.92,3.84c0,1.44,0.3,2.72,0.92,3.84c0.61,1.11,1.44,1.98,2.5,2.59
		c1.05,0.61,2.23,0.92,3.53,0.92C67.77,52.52,68.95,52.21,70,51.6z"/>
	<path class="st0" d="M94.58,54.84c0,1.79-1.45,3.24-3.24,3.24c-1.79,0-3.24-1.45-3.24-3.24s1.45-3.24,3.24-3.24
		C93.13,51.6,94.58,53.05,94.58,54.84"/>
</g>
<g>
	<g>
		<path class="st0" d="M4.65,55.07h0.53v3.1H0.92v-3.01h0.53v2.4h1.31v-2.14h0.52v2.14h1.38V55.07z"/>
		<path class="st0" d="M5.18,50.23l-1.76,1.28l1.76,1.26v0.7l-2.19-1.6l-2.08,1.51v-0.7l1.64-1.19l-1.64-1.18v-0.66l2.06,1.5
			l2.21-1.62V50.23z"/>
		<path class="st0" d="M1.45,46.93v1.46H0.92v-3.53h0.53v1.46h3.74v0.6H1.45z"/>
		<path class="st0" d="M5.18,40.13l-1.31,0.92c0.01,0.11,0.01,0.2,0.01,0.27v1.05h1.3v0.61H0.92v-1.66c0-0.55,0.13-0.99,0.4-1.3
			c0.26-0.32,0.63-0.48,1.09-0.48c0.33,0,0.61,0.08,0.84,0.24c0.23,0.16,0.4,0.39,0.51,0.69l1.43-1.01V40.13z M3.12,40.45
			c-0.17-0.2-0.4-0.3-0.71-0.3c-0.31,0-0.55,0.1-0.71,0.3c-0.16,0.2-0.25,0.5-0.25,0.88v1.04h1.92v-1.04
			C3.37,40.95,3.28,40.65,3.12,40.45z"/>
		<path class="st0" d="M4.12,34.61v2.27l1.07,0.47v0.63l-4.27-1.93v-0.6l4.27-1.94v0.64L4.12,34.61z M3.63,34.82l-2.09,0.92
			l2.09,0.92V34.82z"/>
		<path class="st0" d="M0.92,25.08l4.27,1.87v0.6l-4.27,1.88v-0.66l3.5-1.54l-3.5-1.55V25.08z"/>
		<path class="st0" d="M0.92,23.32v-0.61h4.27v0.61H0.92z"/>
		<path class="st0" d="M5.18,17.36l-1.31,0.92c0.01,0.11,0.01,0.2,0.01,0.27v1.05h1.3v0.61H0.92v-1.66c0-0.55,0.13-0.99,0.4-1.3
			c0.26-0.32,0.63-0.48,1.09-0.48c0.33,0,0.61,0.08,0.84,0.24c0.23,0.16,0.4,0.39,0.51,0.69l1.43-1.01V17.36z M3.12,17.68
			c-0.17-0.2-0.4-0.3-0.71-0.3c-0.31,0-0.55,0.1-0.71,0.3c-0.16,0.2-0.25,0.5-0.25,0.88v1.04h1.92v-1.04
			C3.37,18.18,3.28,17.89,3.12,17.68z"/>
		<path class="st0" d="M3.02,11.61v-0.58h1.66c0.17,0.21,0.31,0.46,0.4,0.74c0.09,0.28,0.14,0.57,0.14,0.88
			c0,0.43-0.09,0.82-0.28,1.16c-0.19,0.35-0.45,0.62-0.78,0.81s-0.7,0.29-1.12,0.29c-0.41,0-0.79-0.1-1.12-0.29
			s-0.59-0.47-0.78-0.82c-0.19-0.35-0.28-0.74-0.28-1.17c0-0.34,0.06-0.65,0.17-0.93c0.11-0.28,0.28-0.52,0.49-0.71l0.38,0.38
			c-0.33,0.34-0.49,0.75-0.49,1.24c0,0.33,0.07,0.62,0.21,0.87c0.14,0.26,0.33,0.46,0.58,0.61c0.25,0.15,0.53,0.22,0.84,0.22
			c0.31,0,0.59-0.07,0.84-0.22c0.25-0.15,0.45-0.35,0.59-0.61c0.14-0.26,0.21-0.55,0.21-0.87c0-0.38-0.09-0.71-0.27-1H3.02z"/>
		<path class="st0" d="M0.92,8.64V8.03h4.27v0.61H0.92z"/>
		<path class="st0" d="M0.92,1.86h4.27v0.5L2,4.92h3.18v0.61H0.92v-0.5L4.1,2.47H0.92V1.86z"/>
	</g>
</g>
</svg>
