<?xml version="1.0" encoding="UTF-8"?>
<svg version="1.1" id="Слой_1" xmlns="http://www.w3.org/2000/svg" xmlns:xlink="http://www.w3.org/1999/xlink" x="0px" y="0px" viewBox="0 0 111.2 153.6" style="enable-background:new 0 0 111.2 153.6;" xml:space="preserve">
<style type="text/css">
	.st0{fill:#134634;}
	.st1{fill:#FFFFFF;}
</style>
<g>
	<g id="Pantone_x5F_3435_C">
		<polygon class="st0" points="111.2,0 111.2,114.3 0,153.6 0,39.8   "/>
	</g>
	<g id="Pantone_x5F_877_C">
		<g>
			<g>
				<path class="st1" d="M11.1,134.7h0.8v4.9H5.2v-4.7H6v3.8h2.1v-3.4h0.8v3.4h2.2L11.1,134.7L11.1,134.7z"/>
				<path class="st1" d="M11.9,127.1l-2.8,2l2.8,2v1.1l-3.4-2.5L5.2,132v-1.1l2.6-1.9l-2.6-1.9v-1.1l3.2,2.4l3.5-2.5V127.1z"/>
				<path class="st1" d="M6,121.9v2.3H5.2v-5.6H6v2.3h5.9v0.9H6z"/>
				<path class="st1" d="M11.9,111.2l-2.1,1.4c0,0.2,0,0.3,0,0.4v1.7h2v1H5.2V113c0-0.9,0.2-1.6,0.6-2.1c0.4-0.5,1-0.7,1.7-0.7      c0.5,0,1,0.1,1.3,0.4c0.4,0.3,0.6,0.6,0.8,1.1l2.3-1.6L11.9,111.2L11.9,111.2z M8.7,111.7c-0.3-0.3-0.6-0.5-1.1-0.5      c-0.5,0-0.9,0.2-1.1,0.5C6.2,112,6,112.5,6,113.1v1.6h3v-1.6C9.1,112.5,8.9,112,8.7,111.7z"/>
				<path class="st1" d="M10.2,102.5v3.6l1.7,0.7v1l-6.7-3v-0.9l6.7-3.1v1L10.2,102.5z M9.5,102.8l-3.3,1.4l3.3,1.4V102.8z"/>
				<path class="st1" d="M5.2,87.5l6.7,2.9v0.9l-6.7,3v-1l5.5-2.4l-5.5-2.4V87.5z"/>
				<path class="st1" d="M5.2,84.7v-1h6.7v1H5.2z"/>
				<path class="st1" d="M11.9,75.3l-2.1,1.4c0,0.2,0,0.3,0,0.4v1.7h2v1H5.2v-2.6c0-0.9,0.2-1.6,0.6-2.1c0.4-0.5,1-0.7,1.7-0.7      c0.5,0,1,0.1,1.3,0.4c0.4,0.3,0.6,0.6,0.8,1.1l2.3-1.6L11.9,75.3L11.9,75.3z M8.7,75.8c-0.3-0.3-0.6-0.5-1.1-0.5      c-0.5,0-0.9,0.2-1.1,0.5C6.2,76.2,6,76.6,6,77.2v1.6h3v-1.6C9.1,76.6,8.9,76.2,8.7,75.8z"/>
				<path class="st1" d="M8.5,66.3v-0.9h2.6c0.3,0.3,0.5,0.7,0.6,1.2c0.2,0.4,0.2,0.9,0.2,1.4c0,0.7-0.2,1.3-0.4,1.8s-0.7,1-1.2,1.3      c-0.5,0.3-1.1,0.5-1.8,0.5S7.3,71.3,6.8,71c-0.5-0.3-0.9-0.7-1.2-1.3c-0.3-0.5-0.4-1.2-0.4-1.8c0-0.5,0.1-1,0.3-1.5      c0.2-0.4,0.4-0.8,0.8-1.1l0.6,0.6c-0.5,0.5-0.8,1.2-0.8,2c0,0.5,0.1,1,0.3,1.4c0.2,0.4,0.5,0.7,0.9,1c0.4,0.2,0.8,0.4,1.3,0.4      c0.5,0,0.9-0.1,1.3-0.4c0.4-0.2,0.7-0.5,0.9-1c0.2-0.4,0.3-0.9,0.3-1.4c0-0.6-0.1-1.1-0.4-1.6L8.5,66.3L8.5,66.3z"/>
				<path class="st1" d="M5.2,61.6v-1h6.7v1H5.2z"/>
				<path class="st1" d="M5.2,50.9h6.7v0.8l-5,4h5v1H5.2v-0.8l5-4h-5V50.9z"/>
			</g>
		</g>
		<g>
			<g>
				<path class="st1" d="M41.9,63h5.9v9.1c-1.3,1-2.9,1.7-4.6,2.2c-1.7,0.5-3.5,0.8-5.2,0.8c-2.5,0-4.7-0.5-6.6-1.6      s-3.5-2.5-4.6-4.3c-1.1-1.8-1.7-3.9-1.7-6.3c0-2.3,0.6-4.4,1.7-6.3c1.1-1.8,2.7-3.3,4.7-4.3c2-1,4.2-1.6,6.7-1.6      c2.2,0,4.1,0.4,5.9,1.1c1.7,0.7,3.2,1.8,4.3,3.2l-4.2,3.8c-1.6-1.7-3.5-2.6-5.7-2.6c-2,0-3.6,0.6-4.8,1.8      c-1.2,1.2-1.8,2.8-1.8,4.9c0,1.3,0.3,2.4,0.8,3.5c0.6,1,1.3,1.8,2.3,2.4c1,0.6,2.2,0.9,3.4,0.9c1.3,0,2.5-0.3,3.6-0.8L41.9,63      L41.9,63z"/>
				<path class="st1" d="M62.3,68.4h-3v6.2h-6.6V51.2h10.1c2.1,0,4,0.4,5.5,1.1c1.6,0.7,2.8,1.7,3.6,3c0.8,1.3,1.3,2.8,1.3,4.6      c0,1.7-0.4,3.2-1.2,4.4c-0.8,1.3-1.9,2.2-3.4,3l5,7.4h-7.1L62.3,68.4z M65.5,57.3c-0.7-0.6-1.7-0.9-3.1-0.9h-3.1v6.9h3.1      c1.4,0,2.4-0.3,3.1-0.9c0.7-0.6,1-1.4,1-2.5C66.5,58.8,66.1,57.9,65.5,57.3z"/>
				<path class="st1" d="M93.6,70.1h-9.9l-1.8,4.5h-6.8l10.3-23.4h6.5l10.4,23.4h-6.9L93.6,70.1z M91.6,65.2l-3-7.5l-3,7.5      C85.6,65.2,91.6,65.2,91.6,65.2z"/>
				<path class="st1" d="M28.3,79.8h6.6v18.2h13v5.3H28.3V79.8z"/>
				<path class="st1" d="M52.3,79.8h6.6v23.4h-6.6V79.8z"/>
				<path class="st1" d="M70,102.1c-2-1.1-3.5-2.5-4.7-4.3c-1.1-1.8-1.7-3.9-1.7-6.3c0-2.3,0.6-4.4,1.7-6.3c1.1-1.8,2.7-3.3,4.7-4.3      c2-1.1,4.2-1.6,6.7-1.6c2.5,0,4.7,0.5,6.7,1.6c2,1.1,3.5,2.5,4.7,4.3c1.1,1.8,1.7,3.9,1.7,6.3c0,2.3-0.6,4.4-1.7,6.3      c-1.1,1.8-2.7,3.3-4.7,4.3c-2,1.1-4.2,1.6-6.7,1.6C74.2,103.7,71.9,103.1,70,102.1z M79.9,97.3c1-0.6,1.7-1.3,2.3-2.4      c0.6-1,0.8-2.2,0.8-3.5c0-1.3-0.3-2.5-0.8-3.5c-0.6-1-1.3-1.8-2.3-2.4c-1-0.6-2-0.8-3.2-0.8s-2.3,0.3-3.2,0.8S71.7,87,71.2,88      c-0.6,1-0.8,2.2-0.8,3.5c0,1.3,0.3,2.5,0.8,3.5c0.6,1,1.3,1.8,2.3,2.4c1,0.6,2,0.8,3.2,0.8S78.9,97.9,79.9,97.3z"/>
				<path class="st1" d="M102.3,100.3c0,1.6-1.3,3-3,3c-1.6,0-3-1.3-3-3s1.3-3,3-3C100.9,97.3,102.3,98.7,102.3,100.3"/>
			</g>
		</g>
	</g>
</g>
</svg>