<?xml version="1.0" encoding="utf-8"?>
<!-- Generator: Adobe Illustrator 23.0.2, SVG Export Plug-In . SVG Version: 6.00 Build 0)  -->
<svg version="1.1" xmlns="http://www.w3.org/2000/svg" xmlns:xlink="http://www.w3.org/1999/xlink" x="0px" y="0px"
	 viewBox="0 0 111.21 153.61" style="enable-background:new 0 0 111.21 153.61;" xml:space="preserve">
<style type="text/css">
	.st0{fill:#134634;}
	.st1{fill:#FFFFFF;}
</style>
<g id="Pantone_x5F_3435_C">
	<polygon class="st0" points="111.21,0 111.18,114.33 0,153.61 0,39.8 	"/>
</g>
<g id="Pantone_x5F_877_C">
	<g>
		<g>
			<path class="st1" d="M11.14,136.75h0.71v4.17H6.11v-4.06h0.71v3.24h1.77v-2.88h0.7v2.88h1.86V136.75z"/>
			<path class="st1" d="M11.86,130.23l-2.37,1.72l2.37,1.7v0.94l-2.95-2.16l-2.8,2.03v-0.94l2.21-1.61l-2.21-1.59v-0.9l2.78,2.03
				l2.97-2.18V130.23z"/>
			<path class="st1" d="M6.82,125.78v1.97H6.11V123h0.71v1.97h5.03v0.81H6.82z"/>
			<path class="st1" d="M11.86,116.61l-1.77,1.24c0.01,0.15,0.02,0.27,0.02,0.36v1.42h1.75v0.82H6.11v-2.24
				c0-0.74,0.18-1.33,0.53-1.76c0.36-0.43,0.85-0.64,1.47-0.64c0.44,0,0.82,0.11,1.13,0.33c0.31,0.22,0.54,0.53,0.68,0.94l1.93-1.36
				V116.61z M9.07,117.05c-0.22-0.27-0.54-0.41-0.96-0.41c-0.42,0-0.74,0.14-0.96,0.41c-0.22,0.27-0.33,0.67-0.33,1.19v1.4h2.59
				v-1.4C9.41,117.72,9.3,117.32,9.07,117.05z"/>
			<path class="st1" d="M10.42,109.18v3.06l1.44,0.63v0.85l-5.75-2.6v-0.81l5.75-2.61v0.86L10.42,109.18z M9.76,109.47l-2.82,1.24
				l2.82,1.24V109.47z"/>
			<path class="st1" d="M6.11,96.34l5.75,2.52v0.81l-5.75,2.53v-0.89l4.72-2.07l-4.72-2.09V96.34z"/>
			<path class="st1" d="M6.11,93.97v-0.82h5.75v0.82H6.11z"/>
			<path class="st1" d="M11.86,85.94l-1.77,1.24c0.01,0.15,0.02,0.27,0.02,0.36v1.42h1.75v0.82H6.11v-2.24
				c0-0.74,0.18-1.33,0.53-1.76c0.36-0.43,0.85-0.64,1.47-0.64c0.44,0,0.82,0.11,1.13,0.33c0.31,0.22,0.54,0.53,0.68,0.94l1.93-1.36
				V85.94z M9.07,86.37c-0.22-0.27-0.54-0.41-0.96-0.41c-0.42,0-0.74,0.14-0.96,0.41c-0.22,0.27-0.33,0.67-0.33,1.19v1.4h2.59v-1.4
				C9.41,87.04,9.3,86.65,9.07,86.37z"/>
			<path class="st1" d="M8.95,78.18V77.4h2.24c0.24,0.28,0.42,0.62,0.54,0.99c0.13,0.38,0.19,0.77,0.19,1.18
				c0,0.58-0.13,1.1-0.38,1.57c-0.25,0.47-0.61,0.83-1.05,1.1c-0.45,0.27-0.95,0.4-1.51,0.4c-0.56,0-1.06-0.13-1.51-0.4
				c-0.45-0.27-0.8-0.63-1.05-1.1c-0.25-0.47-0.38-1-0.38-1.58c0-0.46,0.08-0.88,0.23-1.25c0.15-0.38,0.37-0.69,0.66-0.96l0.51,0.51
				c-0.44,0.46-0.67,1.02-0.67,1.67c0,0.44,0.09,0.83,0.28,1.18c0.19,0.35,0.45,0.62,0.79,0.82c0.34,0.2,0.72,0.3,1.14,0.3
				c0.42,0,0.79-0.1,1.13-0.3c0.34-0.2,0.6-0.47,0.79-0.82c0.19-0.35,0.29-0.74,0.29-1.17c0-0.51-0.12-0.96-0.37-1.35H8.95z"/>
			<path class="st1" d="M6.11,74.19v-0.82h5.75v0.82H6.11z"/>
			<path class="st1" d="M6.11,65.05h5.75v0.67l-4.29,3.45h4.29V70H6.11v-0.67l4.29-3.45H6.11V65.05z"/>
		</g>
	</g>
	<g>
		<g>
			<path class="st1" d="M37.54,75.4h5.01v7.79c-1.15,0.82-2.46,1.45-3.95,1.89c-1.49,0.44-2.98,0.66-4.47,0.66
				c-2.1,0-3.99-0.44-5.67-1.33c-1.68-0.89-3-2.12-3.95-3.71c-0.96-1.58-1.43-3.38-1.43-5.38c0-2,0.48-3.8,1.43-5.38
				c0.95-1.58,2.28-2.82,3.98-3.71c1.7-0.89,3.62-1.33,5.75-1.33c1.87,0,3.55,0.31,5.04,0.95c1.49,0.63,2.73,1.54,3.72,2.72
				l-3.61,3.26c-1.36-1.49-2.98-2.23-4.87-2.23c-1.72,0-3.1,0.52-4.15,1.56c-1.05,1.04-1.57,2.43-1.57,4.17
				c0,1.11,0.24,2.09,0.72,2.96c0.48,0.87,1.15,1.55,2,2.03c0.86,0.49,1.84,0.73,2.95,0.73c1.09,0,2.11-0.22,3.06-0.66V75.4z"/>
			<path class="st1" d="M54.97,80.01h-2.58v5.33h-5.67V65.29h8.65c1.81,0,3.39,0.3,4.73,0.9c1.34,0.6,2.37,1.46,3.09,2.58
				s1.09,2.43,1.09,3.94c0,1.45-0.34,2.72-1.02,3.79c-0.68,1.08-1.65,1.92-2.91,2.53l4.32,6.3H58.6L54.97,80.01z M57.66,70.53
				c-0.59-0.52-1.47-0.77-2.63-0.77h-2.64v5.87h2.64c1.16,0,2.04-0.25,2.63-0.76c0.59-0.51,0.89-1.23,0.89-2.16
				C58.54,71.77,58.25,71.05,57.66,70.53z"/>
			<path class="st1" d="M81.73,81.44h-8.48l-1.57,3.89H65.9l8.85-20.04h5.58l8.88,20.04h-5.9L81.73,81.44z M80.07,77.26l-2.58-6.41
				l-2.58,6.41H80.07z"/>
			<path class="st1" d="M25.86,89.74h5.67v15.55h11.1v4.5H25.86V89.74z"/>
			<path class="st1" d="M46.4,89.74h5.67v20.04H46.4V89.74z"/>
			<path class="st1" d="M61.53,108.84c-1.69-0.9-3.02-2.14-3.98-3.72c-0.96-1.58-1.45-3.37-1.45-5.35c0-1.99,0.48-3.77,1.45-5.35
				c0.96-1.58,2.29-2.83,3.98-3.72c1.69-0.9,3.59-1.35,5.71-1.35c2.12,0,4.02,0.45,5.71,1.35c1.69,0.9,3.02,2.14,3.98,3.72
				c0.96,1.58,1.45,3.37,1.45,5.35c0,1.99-0.48,3.77-1.45,5.35c-0.96,1.58-2.29,2.83-3.98,3.72c-1.69,0.9-3.59,1.35-5.71,1.35
				C65.12,110.18,63.22,109.74,61.53,108.84z M69.99,104.77c0.82-0.48,1.47-1.15,1.95-2.02c0.48-0.87,0.72-1.87,0.72-2.99
				c0-1.13-0.24-2.12-0.72-2.99c-0.48-0.87-1.13-1.54-1.95-2.02c-0.82-0.48-1.74-0.72-2.75-0.72c-1.01,0-1.93,0.24-2.75,0.72
				c-0.82,0.48-1.47,1.15-1.95,2.02c-0.48,0.87-0.71,1.87-0.71,2.99c0,1.13,0.24,2.12,0.71,2.99c0.48,0.87,1.13,1.54,1.95,2.02
				c0.82,0.48,1.74,0.72,2.75,0.72C68.25,105.49,69.17,105.25,69.99,104.77z"/>
			<path class="st1" d="M89.17,107.3c0,1.4-1.13,2.53-2.53,2.53c-1.4,0-2.53-1.13-2.53-2.53s1.13-2.53,2.53-2.53
				C88.03,104.77,89.17,105.9,89.17,107.3"/>
		</g>
	</g>
</g>
</svg>
