<?xml version="1.0" encoding="utf-8"?>
<!-- Generator: Adobe Illustrator 23.0.2, SVG Export Plug-In . SVG Version: 6.00 Build 0)  -->
<svg version="1.1" id="Pantone_x5F_877_C" xmlns="http://www.w3.org/2000/svg" xmlns:xlink="http://www.w3.org/1999/xlink" x="0px"
	 y="0px" viewBox="0 0 48.17 48.71" style="enable-background:new 0 0 48.17 48.71;" xml:space="preserve">
<style type="text/css">
	.st0{fill:#FFFFFF;}
</style>
<g>
	<g>
		<path class="st0" d="M0.66,18.95c0.17-0.24,0.37-0.42,0.62-0.52c0.25-0.1,0.52-0.13,0.82-0.07c0.3,0.05,0.54,0.17,0.74,0.35
			c0.2,0.18,0.33,0.42,0.4,0.7s0.07,0.6,0.01,0.96l-0.15,0.81l1.11,0.2l-0.17,0.93L0,21.6l0.31-1.75
			C0.38,19.49,0.49,19.19,0.66,18.95z M2.4,19.61c-0.09-0.17-0.25-0.27-0.48-0.31c-0.23-0.04-0.41,0-0.56,0.13
			c-0.15,0.12-0.25,0.33-0.3,0.61L0.93,20.8l1.4,0.25l0.14-0.76C2.51,20.01,2.49,19.78,2.4,19.61z"/>
		<path class="st0" d="M5.9,15.67l-1.36,0.29l-0.02,0.04l-0.32,0.76l1.05,0.44L4.9,18.08l-3.79-1.57l0.68-1.64
			c0.14-0.33,0.32-0.6,0.53-0.8c0.21-0.2,0.45-0.32,0.71-0.37s0.53-0.01,0.81,0.1c0.28,0.12,0.5,0.29,0.64,0.5
			c0.15,0.22,0.22,0.48,0.23,0.77l1.57-0.34L5.9,15.67z M2.91,14.69c-0.17,0.09-0.31,0.27-0.42,0.53l-0.3,0.71l1.32,0.55l0.3-0.71
			c0.11-0.26,0.13-0.49,0.08-0.67c-0.06-0.19-0.19-0.32-0.4-0.41C3.27,14.6,3.08,14.6,2.91,14.69z"/>
		<path class="st0" d="M7.89,11.03l0.63,0.43l-1.8,2.61l-3.37-2.33L5.1,9.2l0.63,0.43L4.5,11.4l0.73,0.51l1.08-1.57l0.61,0.42
			l-1.08,1.57l0.78,0.54L7.89,11.03z"/>
		<path class="st0" d="M11.79,8.32l-1.64-1.83l0.45,2.32l-0.32,0.28L8.07,8.41l1.6,1.8L9.01,10.8L6.28,7.74l0.59-0.52L9.71,8.1
			L9.14,5.19l0.58-0.52l2.73,3.05L11.79,8.32z"/>
		<path class="st0" d="M11.34,3.71l0.82-0.48l2.09,3.53l-0.82,0.48L11.34,3.71z"/>
		<path class="st0" d="M15.47,5.62c-0.42-0.19-0.74-0.56-0.95-1.12L13.7,2.35l0.89-0.34l0.81,2.11c0.26,0.69,0.68,0.92,1.25,0.7
			c0.28-0.11,0.46-0.27,0.54-0.49c0.08-0.22,0.06-0.51-0.08-0.86l-0.81-2.11l0.88-0.33l0.82,2.14c0.21,0.56,0.23,1.05,0.04,1.47
			c-0.19,0.42-0.56,0.73-1.1,0.94S15.89,5.8,15.47,5.62z"/>
		<path class="st0" d="M23.28,4.17l-0.27-2.45l-0.98,2.14L21.6,3.92L20.2,2.08l0.26,2.39l-0.88,0.1l-0.44-4.08l0.78-0.08l1.8,2.37
			l1.23-2.7L23.71,0l0.45,4.08L23.28,4.17z"/>
		<path class="st0" d="M31.25,5.85c-0.17,0.13-0.36,0.21-0.56,0.25c-0.2,0.04-0.42,0.03-0.64-0.03c-0.3-0.08-0.55-0.21-0.75-0.39
			c-0.21-0.19-0.42-0.48-0.65-0.88c-0.35-0.14-0.64-0.33-0.87-0.59s-0.39-0.55-0.48-0.89c-0.08-0.33-0.08-0.68,0.01-1.03
			c0.1-0.39,0.28-0.72,0.55-0.98s0.59-0.44,0.96-0.54c0.38-0.09,0.77-0.09,1.18,0.02c0.41,0.1,0.76,0.29,1.04,0.55
			c0.28,0.26,0.48,0.57,0.59,0.93c0.11,0.36,0.12,0.74,0.02,1.13c-0.12,0.46-0.35,0.83-0.7,1.12s-0.75,0.44-1.21,0.46
			c0.07,0.12,0.14,0.22,0.22,0.28c0.08,0.07,0.17,0.11,0.27,0.14c0.25,0.06,0.49,0.02,0.72-0.13L31.25,5.85z M28.24,3.22
			c0.06,0.22,0.17,0.41,0.33,0.56c0.16,0.16,0.36,0.26,0.59,0.32s0.46,0.06,0.68,0c0.22-0.06,0.4-0.17,0.56-0.34
			c0.16-0.17,0.27-0.37,0.33-0.62s0.06-0.48,0.01-0.7c-0.06-0.22-0.17-0.41-0.33-0.56c-0.16-0.16-0.36-0.26-0.59-0.32
			c-0.24-0.06-0.46-0.06-0.68,0c-0.22,0.06-0.4,0.17-0.56,0.34c-0.16,0.17-0.27,0.37-0.33,0.62S28.18,3,28.24,3.22z"/>
		<path class="st0" d="M32.47,5.55c-0.13-0.44-0.06-0.92,0.22-1.46l1.08-2.02l0.84,0.45l-1.07,1.99c-0.35,0.65-0.25,1.12,0.29,1.4
			c0.26,0.14,0.5,0.17,0.72,0.09c0.22-0.08,0.42-0.29,0.6-0.63l1.07-1.99l0.83,0.44l-1.08,2.02c-0.28,0.53-0.65,0.86-1.09,0.99
			s-0.92,0.06-1.44-0.22C32.93,6.35,32.6,5.99,32.47,5.55z"/>
		<path class="st0" d="M38.48,9.08l-1.44-1.25l-0.85,0.42l-0.73-0.64l4.07-1.89l0.71,0.62l-1.31,4.3l-0.75-0.65L38.48,9.08z
			 M38.72,8.34l0.54-1.61l-1.52,0.76L38.72,8.34z"/>
		<path class="st0" d="M42.46,8.6l0.58,0.75l-2.65,2.02l1.25,1.64l-0.62,0.47l-1.82-2.39L42.46,8.6z"/>
		<path class="st0" d="M44.91,12.12l0.46,0.83l-3.58,1.99l-0.46-0.83L44.91,12.12z"/>
		<path class="st0" d="M45.73,15.56l-0.46-1.23l0.72-0.27l1.26,3.34l-0.72,0.27l-0.46-1.23l-3.11,1.17l-0.33-0.89L45.73,15.56z"/>
		<path class="st0" d="M45.29,21.06l-1.43,0.24l-0.16-0.94l1.44-0.25l2.33-2.01l0.17,0.99l-1.61,1.39l1.98,0.77l0.16,0.92
			L45.29,21.06z"/>
	</g>
	<g>
		<path class="st0" d="M2.88,32.94c-0.12,0.18-0.29,0.31-0.53,0.38c-0.34,0.11-0.66,0.07-0.94-0.13c-0.28-0.2-0.5-0.54-0.65-1.03
			l-0.63-1.92l3.9-1.27l0.59,1.82c0.15,0.45,0.17,0.83,0.08,1.14c-0.09,0.31-0.3,0.52-0.62,0.62c-0.19,0.06-0.38,0.07-0.56,0.02
			c-0.18-0.05-0.34-0.15-0.48-0.29C3.06,32.54,3,32.76,2.88,32.94z M2.13,32.39c0.32-0.11,0.42-0.37,0.28-0.79L2.08,30.6L1.1,30.92
			l0.32,0.99C1.56,32.34,1.79,32.5,2.13,32.39z M2.71,30.4l0.27,0.84c0.06,0.2,0.15,0.33,0.26,0.41s0.25,0.09,0.4,0.04
			c0.15-0.05,0.25-0.14,0.3-0.27C4,31.28,4,31.12,3.93,30.93l-0.27-0.84L2.71,30.4z"/>
		<path class="st0" d="M5.64,36.61c-0.04,0.34-0.25,0.63-0.62,0.87c-0.39,0.25-0.77,0.31-1.13,0.2s-0.69-0.4-0.98-0.85l-0.99-1.56
			l3.46-2.2l0.51,0.8l-1.14,0.72l0.56,0.88C5.58,35.88,5.69,36.26,5.64,36.61z M3.94,36.79c0.18,0.05,0.36,0.02,0.56-0.11
			c0.36-0.23,0.4-0.56,0.12-1l-0.46-0.72l-1.14,0.72l0.46,0.72C3.61,36.6,3.76,36.73,3.94,36.79z M7.56,36.49l0.5,0.8l-3.46,2.2
			l-0.51-0.8L7.56,36.49z"/>
		<path class="st0" d="M6.64,41.32c-0.12-0.36-0.14-0.73-0.06-1.1c0.08-0.37,0.26-0.7,0.54-0.99c0.28-0.29,0.6-0.49,0.96-0.59
			c0.36-0.1,0.73-0.1,1.1,0c0.37,0.1,0.71,0.3,1.01,0.59c0.26,0.24,0.45,0.51,0.57,0.8c0.12,0.29,0.17,0.58,0.15,0.89L10.1,40.9
			c0.02-0.42-0.12-0.78-0.42-1.06c-0.18-0.17-0.39-0.29-0.61-0.35s-0.44-0.05-0.66,0.02S8,39.71,7.83,39.89
			c-0.17,0.18-0.29,0.39-0.35,0.61c-0.06,0.22-0.05,0.44,0.02,0.66c0.07,0.22,0.19,0.41,0.38,0.59c0.3,0.28,0.66,0.4,1.08,0.36
			l0.05,0.83c-0.31,0.04-0.61,0-0.9-0.11c-0.3-0.11-0.57-0.29-0.83-0.53C6.97,42.01,6.76,41.68,6.64,41.32z"/>
		<path class="st0" d="M16.49,43.45l-1.98,3.59l-4.74-2.62l1.98-3.59l0.83,0.46l-1.61,2.91l1.13,0.63l1.61-2.91l0.83,0.46
			l-1.61,2.91l1.13,0.62l1.61-2.91L16.49,43.45z"/>
		<path class="st0" d="M19.68,47.69l-0.19,0.74l-3.07-0.8l1.03-3.97l3,0.78l-0.19,0.74l-2.09-0.54l-0.22,0.86l1.84,0.48l-0.19,0.71
			l-1.84-0.48l-0.24,0.92L19.68,47.69z"/>
		<path class="st0" d="M24.12,45.51l-1.95-0.14l-0.23,3.32l-0.94-0.07l0.29-4.09l2.89,0.21L24.12,45.51z"/>
		<path class="st0" d="M25.58,48.55c-0.36-0.14-0.65-0.37-0.88-0.67s-0.36-0.65-0.41-1.05c-0.04-0.4,0.01-0.77,0.17-1.11
			s0.39-0.62,0.71-0.84c0.32-0.22,0.69-0.35,1.11-0.4s0.81,0,1.17,0.15c0.36,0.15,0.65,0.37,0.88,0.67c0.23,0.3,0.37,0.65,0.41,1.05
			c0.04,0.4-0.01,0.77-0.17,1.11c-0.16,0.34-0.4,0.62-0.71,0.84s-0.69,0.35-1.11,0.4C26.33,48.74,25.94,48.7,25.58,48.55z
			 M27.3,47.66c0.18-0.13,0.32-0.3,0.41-0.51c0.09-0.21,0.12-0.44,0.09-0.69c-0.03-0.25-0.11-0.47-0.24-0.66
			c-0.13-0.19-0.3-0.32-0.51-0.41s-0.43-0.12-0.67-0.09c-0.24,0.03-0.45,0.11-0.63,0.24c-0.18,0.13-0.32,0.3-0.41,0.51
			c-0.09,0.21-0.12,0.44-0.09,0.69c0.03,0.25,0.11,0.47,0.24,0.66c0.13,0.19,0.3,0.32,0.51,0.41c0.21,0.09,0.43,0.12,0.67,0.09
			C26.9,47.87,27.12,47.79,27.3,47.66z"/>
		<path class="st0" d="M33.25,46.77c-0.38-0.03-0.73-0.15-1.04-0.36c-0.31-0.21-0.55-0.51-0.71-0.88s-0.23-0.74-0.18-1.12
			s0.18-0.71,0.42-1.02c0.23-0.3,0.54-0.54,0.93-0.72c0.32-0.15,0.64-0.22,0.96-0.22c0.31,0,0.61,0.06,0.88,0.19l-0.32,0.76
			c-0.38-0.18-0.76-0.18-1.14-0.01c-0.23,0.1-0.42,0.25-0.55,0.43c-0.14,0.18-0.21,0.39-0.23,0.62c-0.02,0.23,0.02,0.46,0.13,0.69
			s0.25,0.42,0.43,0.55c0.18,0.14,0.39,0.21,0.62,0.23c0.23,0.02,0.46-0.02,0.69-0.13c0.37-0.17,0.62-0.46,0.74-0.87l0.79,0.26
			c-0.08,0.3-0.23,0.56-0.44,0.79s-0.48,0.42-0.8,0.57C34.01,46.73,33.63,46.8,33.25,46.77z"/>
		<path class="st0" d="M37.63,44.44c-0.38,0.06-0.75,0.01-1.1-0.13c-0.35-0.14-0.64-0.37-0.88-0.7c-0.24-0.32-0.38-0.67-0.42-1.04
			c-0.04-0.37,0.02-0.74,0.19-1.09s0.42-0.66,0.76-0.91c0.34-0.25,0.7-0.41,1.08-0.47c0.38-0.06,0.75-0.01,1.1,0.13
			c0.35,0.14,0.64,0.37,0.88,0.7c0.24,0.32,0.38,0.67,0.42,1.05s-0.03,0.74-0.19,1.09c-0.16,0.35-0.42,0.65-0.76,0.91
			S38.02,44.38,37.63,44.44z M38.66,42.79c0.09-0.21,0.12-0.42,0.09-0.65s-0.12-0.44-0.27-0.64c-0.15-0.2-0.33-0.35-0.54-0.44
			c-0.21-0.09-0.42-0.13-0.65-0.1c-0.22,0.03-0.43,0.11-0.63,0.26c-0.19,0.14-0.34,0.32-0.43,0.53s-0.12,0.42-0.09,0.65
			c0.03,0.23,0.12,0.44,0.27,0.64c0.15,0.2,0.33,0.35,0.54,0.44s0.42,0.13,0.65,0.1c0.22-0.03,0.43-0.11,0.63-0.26
			C38.43,43.18,38.57,43,38.66,42.79z"/>
		<path class="st0" d="M40.39,36.82c0.27-0.12,0.53-0.17,0.79-0.13c0.26,0.04,0.51,0.15,0.74,0.35c0.23,0.2,0.38,0.42,0.46,0.68
			s0.07,0.52-0.01,0.8s-0.24,0.56-0.48,0.83l-0.54,0.63l0.86,0.74l-0.62,0.72l-3.11-2.67l1.16-1.35
			C39.87,37.14,40.12,36.94,40.39,36.82z M41.55,38.27c0-0.19-0.08-0.36-0.25-0.51c-0.17-0.15-0.36-0.21-0.55-0.18
			c-0.19,0.03-0.38,0.16-0.56,0.37l-0.5,0.59l1.08,0.93l0.5-0.59C41.45,38.67,41.55,38.47,41.55,38.27z"/>
		<path class="st0" d="M43.3,33.26l-0.66,1.14l2.88,1.66l-0.47,0.81l-2.88-1.66l-0.65,1.13l-0.67-0.39l1.77-3.08L43.3,33.26z"/>
		<path class="st0" d="M46.73,30.92l-0.61,1.8l0.72,0.63l-0.31,0.92l-3.3-3.05l0.3-0.89L48,29.92l-0.32,0.94L46.73,30.92z
			 M45.96,30.98l-1.7,0.11l1.28,1.12L45.96,30.98z"/>
	</g>
	<g>
		<g>
			<path class="st0" d="M16.64,14.93c-0.31-0.17-0.56-0.4-0.74-0.71c-0.18-0.3-0.27-0.64-0.27-1.02s0.09-0.72,0.27-1.02
				c0.18-0.3,0.43-0.54,0.74-0.71c0.32-0.17,0.67-0.25,1.06-0.25c0.33,0,0.63,0.06,0.9,0.17c0.27,0.12,0.49,0.28,0.67,0.5
				l-0.57,0.52c-0.26-0.3-0.58-0.45-0.96-0.45c-0.24,0-0.45,0.05-0.63,0.16c-0.19,0.1-0.33,0.25-0.43,0.43
				c-0.1,0.19-0.16,0.4-0.16,0.63c0,0.24,0.05,0.45,0.16,0.63c0.1,0.19,0.25,0.33,0.43,0.43c0.19,0.1,0.4,0.16,0.63,0.16
				c0.38,0,0.7-0.15,0.96-0.45l0.57,0.53c-0.18,0.22-0.41,0.39-0.68,0.51s-0.57,0.17-0.9,0.17C17.31,15.19,16.96,15.1,16.64,14.93z"
				/>
			<path class="st0" d="M20.85,14.93c-0.32-0.17-0.57-0.41-0.75-0.71c-0.18-0.3-0.27-0.64-0.27-1.01c0-0.38,0.09-0.71,0.27-1.01
				c0.18-0.3,0.43-0.54,0.75-0.71c0.32-0.17,0.68-0.26,1.07-0.26c0.4,0,0.75,0.09,1.07,0.26c0.32,0.17,0.57,0.41,0.75,0.71
				c0.18,0.3,0.27,0.64,0.27,1.01c0,0.38-0.09,0.71-0.27,1.01c-0.18,0.3-0.43,0.54-0.75,0.71c-0.32,0.17-0.67,0.26-1.07,0.26
				C21.52,15.19,21.17,15.1,20.85,14.93z M22.53,14.28c0.18-0.1,0.33-0.25,0.43-0.43c0.1-0.19,0.16-0.4,0.16-0.63
				c0-0.24-0.05-0.45-0.16-0.63s-0.25-0.33-0.43-0.43c-0.18-0.1-0.39-0.16-0.61-0.16c-0.23,0-0.43,0.05-0.61,0.16
				c-0.18,0.1-0.33,0.25-0.43,0.43c-0.1,0.19-0.16,0.4-0.16,0.63c0,0.24,0.05,0.45,0.16,0.63c0.1,0.19,0.25,0.33,0.43,0.43
				c0.18,0.1,0.39,0.16,0.61,0.16C22.15,14.43,22.35,14.38,22.53,14.28z"/>
			<path class="st0" d="M24.96,11.3h0.88v3.1h1.92v0.72h-2.8V11.3z"/>
			<path class="st0" d="M28.53,11.3h1.74c0.42,0,0.78,0.08,1.1,0.24c0.32,0.16,0.57,0.38,0.74,0.67c0.18,0.29,0.27,0.62,0.27,1.01
				s-0.09,0.72-0.27,1.01s-0.42,0.51-0.74,0.67c-0.32,0.16-0.69,0.24-1.1,0.24h-1.74V11.3z M30.22,14.4c0.38,0,0.69-0.11,0.92-0.32
				c0.23-0.21,0.34-0.5,0.34-0.87s-0.11-0.65-0.34-0.87s-0.53-0.32-0.92-0.32h-0.81v2.37H30.22z"/>
		</g>
	</g>
	<g>
		<path class="st0" d="M12.83,17.83c0.25,0.11,0.44,0.27,0.58,0.48c0.13,0.21,0.2,0.45,0.2,0.74c0,0.28-0.07,0.53-0.2,0.74
			c-0.14,0.21-0.33,0.37-0.58,0.48c-0.25,0.11-0.54,0.17-0.88,0.17h-0.77v1.05h-0.88v-3.83h1.66
			C12.29,17.66,12.58,17.72,12.83,17.83z M12.5,19.54c0.14-0.12,0.21-0.28,0.21-0.49c0-0.21-0.07-0.38-0.21-0.5
			c-0.14-0.11-0.34-0.17-0.61-0.17h-0.72v1.33h0.72C12.16,19.71,12.37,19.65,12.5,19.54z"/>
		<path class="st0" d="M16.95,21.49l-0.74-1.07h-0.04H15.4v1.07h-0.88v-3.83h1.66c0.34,0,0.63,0.06,0.88,0.17
			c0.25,0.11,0.44,0.27,0.58,0.48c0.13,0.21,0.2,0.45,0.2,0.74s-0.07,0.53-0.21,0.74c-0.14,0.21-0.33,0.36-0.58,0.47l0.86,1.23
			H16.95z M16.72,18.55c-0.14-0.11-0.34-0.17-0.61-0.17H15.4v1.33h0.72c0.27,0,0.47-0.06,0.61-0.17c0.14-0.12,0.21-0.28,0.21-0.49
			C16.93,18.83,16.86,18.67,16.72,18.55z"/>
		<path class="st0" d="M21.76,20.78v0.71H18.8v-3.83h2.89v0.71h-2.01v0.83h1.78v0.69h-1.78v0.88H21.76z"/>
		<path class="st0" d="M23.12,21.43c-0.28-0.08-0.51-0.19-0.68-0.32l0.3-0.67c0.16,0.12,0.36,0.22,0.58,0.29
			c0.23,0.07,0.45,0.11,0.68,0.11c0.25,0,0.44-0.04,0.56-0.11c0.12-0.08,0.18-0.17,0.18-0.3c0-0.09-0.04-0.17-0.11-0.23
			c-0.07-0.06-0.16-0.11-0.27-0.15c-0.11-0.04-0.26-0.08-0.45-0.12c-0.29-0.07-0.53-0.14-0.72-0.21c-0.19-0.07-0.35-0.18-0.48-0.33
			s-0.2-0.36-0.2-0.61c0-0.22,0.06-0.42,0.18-0.6s0.3-0.32,0.54-0.43c0.24-0.11,0.54-0.16,0.89-0.16c0.24,0,0.48,0.03,0.72,0.09
			c0.23,0.06,0.44,0.14,0.61,0.25l-0.27,0.67c-0.35-0.2-0.71-0.3-1.06-0.3c-0.25,0-0.43,0.04-0.55,0.12s-0.18,0.19-0.18,0.32
			c0,0.13,0.07,0.23,0.21,0.29s0.34,0.13,0.63,0.19c0.29,0.07,0.53,0.14,0.72,0.21s0.34,0.18,0.48,0.33c0.13,0.15,0.2,0.35,0.2,0.61
			c0,0.22-0.06,0.42-0.18,0.6c-0.12,0.18-0.3,0.32-0.55,0.43s-0.54,0.16-0.89,0.16C23.69,21.55,23.4,21.51,23.12,21.43z"/>
		<path class="st0" d="M26.88,21.43c-0.28-0.08-0.51-0.19-0.68-0.32l0.3-0.67c0.16,0.12,0.36,0.22,0.58,0.29
			c0.23,0.07,0.45,0.11,0.68,0.11c0.25,0,0.44-0.04,0.56-0.11c0.12-0.08,0.18-0.17,0.18-0.3c0-0.09-0.04-0.17-0.11-0.23
			c-0.07-0.06-0.16-0.11-0.27-0.15c-0.11-0.04-0.26-0.08-0.45-0.12c-0.29-0.07-0.53-0.14-0.72-0.21c-0.19-0.07-0.35-0.18-0.48-0.33
			s-0.2-0.36-0.2-0.61c0-0.22,0.06-0.42,0.18-0.6s0.3-0.32,0.54-0.43c0.24-0.11,0.54-0.16,0.89-0.16c0.24,0,0.48,0.03,0.72,0.09
			c0.23,0.06,0.44,0.14,0.61,0.25l-0.27,0.67c-0.35-0.2-0.71-0.3-1.06-0.3c-0.25,0-0.43,0.04-0.55,0.12s-0.18,0.19-0.18,0.32
			c0,0.13,0.07,0.23,0.21,0.29s0.34,0.13,0.63,0.19c0.29,0.07,0.53,0.14,0.72,0.21s0.34,0.18,0.48,0.33c0.13,0.15,0.2,0.35,0.2,0.61
			c0,0.22-0.06,0.42-0.18,0.6c-0.12,0.18-0.3,0.32-0.55,0.43s-0.54,0.16-0.89,0.16C27.46,21.55,27.16,21.51,26.88,21.43z"/>
		<path class="st0" d="M33.22,20.78v0.71h-2.96v-3.83h2.89v0.71h-2.01v0.83h1.78v0.69h-1.78v0.88H33.22z"/>
		<path class="st0" d="M34.2,17.66h1.74c0.42,0,0.78,0.08,1.1,0.24c0.32,0.16,0.57,0.38,0.74,0.67c0.18,0.29,0.27,0.62,0.27,1.01
			s-0.09,0.72-0.27,1.01s-0.42,0.51-0.74,0.67c-0.32,0.16-0.69,0.24-1.1,0.24H34.2V17.66z M35.9,20.76c0.38,0,0.69-0.11,0.92-0.32
			c0.23-0.21,0.34-0.5,0.34-0.87s-0.11-0.65-0.34-0.87s-0.53-0.32-0.92-0.32h-0.81v2.37H35.9z"/>
	</g>
	<g>
		<g>
			<path class="st0" d="M8.98,29.05l0.67,0.98l0.67-0.98h0.87l-1.07,1.54l1.16,1.68h-0.88l-0.75-1.07L8.9,32.27H8.04l1.15-1.65
				l-1.08-1.57H8.98z"/>
			<path class="st0" d="M12.47,32.11c-0.27-0.14-0.48-0.34-0.63-0.6c-0.15-0.25-0.23-0.54-0.23-0.85c0-0.32,0.08-0.6,0.23-0.85
				c0.15-0.25,0.36-0.45,0.63-0.6c0.27-0.14,0.57-0.22,0.9-0.22c0.33,0,0.63,0.07,0.9,0.22c0.27,0.14,0.48,0.34,0.63,0.6
				s0.23,0.54,0.23,0.85c0,0.32-0.08,0.6-0.23,0.85s-0.36,0.45-0.63,0.6c-0.27,0.14-0.57,0.22-0.9,0.22
				C13.04,32.33,12.73,32.26,12.47,32.11z M13.88,31.56c0.15-0.09,0.27-0.21,0.36-0.37c0.09-0.16,0.13-0.33,0.13-0.53
				s-0.04-0.38-0.13-0.53c-0.09-0.16-0.21-0.28-0.36-0.37c-0.15-0.09-0.33-0.13-0.52-0.13c-0.19,0-0.36,0.04-0.51,0.13
				c-0.15,0.09-0.27,0.21-0.36,0.37c-0.09,0.16-0.13,0.33-0.13,0.53s0.04,0.38,0.13,0.53c0.09,0.16,0.21,0.28,0.36,0.37
				c0.15,0.09,0.33,0.13,0.51,0.13C13.56,31.69,13.73,31.65,13.88,31.56z"/>
			<path class="st0" d="M18.72,29.05v3.22h-0.74v-2.61h-1.1l-0.02,0.67c-0.02,0.46-0.05,0.83-0.11,1.11
				c-0.06,0.28-0.16,0.5-0.29,0.65c-0.14,0.15-0.33,0.23-0.57,0.23c-0.1,0-0.22-0.02-0.37-0.05l0.05-0.63
				c0.04,0.01,0.08,0.02,0.13,0.02c0.18,0,0.3-0.1,0.37-0.31s0.12-0.54,0.13-0.99l0.05-1.31H18.72z"/>
			<path class="st0" d="M20.38,32.11c-0.27-0.14-0.48-0.34-0.63-0.6c-0.15-0.25-0.23-0.54-0.23-0.85c0-0.32,0.08-0.6,0.23-0.85
				c0.15-0.25,0.36-0.45,0.63-0.6c0.27-0.14,0.57-0.22,0.9-0.22c0.33,0,0.63,0.07,0.9,0.22c0.27,0.14,0.48,0.34,0.63,0.6
				s0.23,0.54,0.23,0.85c0,0.32-0.08,0.6-0.23,0.85s-0.36,0.45-0.63,0.6c-0.27,0.14-0.57,0.22-0.9,0.22
				C20.95,32.33,20.65,32.26,20.38,32.11z M21.8,31.56c0.15-0.09,0.27-0.21,0.36-0.37c0.09-0.16,0.13-0.33,0.13-0.53
				s-0.04-0.38-0.13-0.53c-0.09-0.16-0.21-0.28-0.36-0.37c-0.15-0.09-0.33-0.13-0.52-0.13c-0.19,0-0.36,0.04-0.51,0.13
				c-0.15,0.09-0.27,0.21-0.36,0.37c-0.09,0.16-0.13,0.33-0.13,0.53s0.04,0.38,0.13,0.53c0.09,0.16,0.21,0.28,0.36,0.37
				c0.15,0.09,0.33,0.13,0.51,0.13C21.48,31.69,21.65,31.65,21.8,31.56z"/>
			<path class="st0" d="M27.08,31.67v1.27h-0.69v-0.67h-2.27v0.67h-0.69l0-1.27h0.13c0.19-0.01,0.33-0.15,0.41-0.42
				c0.08-0.28,0.13-0.67,0.15-1.18l0.04-1.01h2.48v2.61H27.08z M24.68,31.09c-0.05,0.26-0.12,0.45-0.23,0.57h1.44v-2.01h-1.1
				l-0.01,0.47C24.76,30.51,24.73,30.83,24.68,31.09z"/>
			<path class="st0" d="M30.77,29.05v3.22h-0.75v-1.32h-1.46v1.32h-0.75v-3.22h0.75v1.27h1.46v-1.27H30.77z"/>
			<path class="st0" d="M34.27,30.37c0.21,0.17,0.31,0.43,0.31,0.78c0,0.36-0.12,0.64-0.35,0.83c-0.23,0.19-0.56,0.29-0.98,0.29
				H31.8v-3.22h0.74v1.06h0.82C33.76,30.11,34.06,30.2,34.27,30.37z M33.67,31.58c0.11-0.1,0.16-0.23,0.16-0.41
				c0-0.33-0.21-0.5-0.62-0.5h-0.67v1.06h0.67C33.41,31.72,33.56,31.67,33.67,31.58z M34.99,29.05h0.74v3.22h-0.74V29.05z"/>
			<path class="st0" d="M36.76,29.05h0.74v2.1l1.54-2.1h0.7v3.22H39v-2.09l-1.54,2.09h-0.7V29.05z M37.36,28.14h0.51
				c0.01,0.22,0.13,0.33,0.38,0.33c0.12,0,0.22-0.03,0.28-0.08s0.1-0.14,0.1-0.25h0.51c0,0.23-0.08,0.4-0.22,0.52
				c-0.15,0.12-0.37,0.18-0.67,0.18C37.66,28.85,37.36,28.61,37.36,28.14z"/>
		</g>
	</g>
	<g>
		<g>
			<path class="st0" d="M14.74,38.21c-0.27-0.14-0.48-0.34-0.63-0.6c-0.15-0.25-0.23-0.54-0.23-0.85c0-0.32,0.08-0.6,0.23-0.85
				c0.15-0.25,0.36-0.45,0.63-0.6c0.27-0.14,0.57-0.22,0.9-0.22c0.33,0,0.63,0.07,0.9,0.22c0.27,0.14,0.48,0.34,0.63,0.6
				s0.23,0.54,0.23,0.85c0,0.32-0.08,0.6-0.23,0.85s-0.36,0.45-0.63,0.6c-0.27,0.14-0.57,0.22-0.9,0.22
				C15.31,38.43,15.01,38.36,14.74,38.21z M16.16,37.66c0.15-0.09,0.27-0.21,0.36-0.37c0.09-0.16,0.13-0.33,0.13-0.53
				s-0.04-0.38-0.13-0.53c-0.09-0.16-0.21-0.28-0.36-0.37c-0.15-0.09-0.33-0.13-0.52-0.13c-0.19,0-0.36,0.04-0.51,0.13
				c-0.15,0.09-0.27,0.21-0.36,0.37c-0.09,0.16-0.13,0.33-0.13,0.53s0.04,0.38,0.13,0.53c0.09,0.16,0.21,0.28,0.36,0.37
				c0.15,0.09,0.33,0.13,0.51,0.13C15.83,37.79,16,37.75,16.16,37.66z"/>
			<path class="st0" d="M20.63,35.76H19.6v2.61h-0.74v-2.61h-1.03v-0.61h2.79V35.76z"/>
			<path class="st0" d="M24.11,37.08h-0.47v1.3h-0.73v-1.3h-0.48l-0.72,1.3h-0.86l0.97-1.68l-0.91-1.54h0.79l0.72,1.3h0.49v-1.3
				h0.73v1.3h0.48l0.73-1.3h0.79l-0.9,1.54l0.96,1.68h-0.86L24.11,37.08z"/>
			<path class="st0" d="M26.28,35.15h0.74v2.1l1.54-2.1h0.7v3.22h-0.74v-2.09l-1.54,2.09h-0.7V35.15z"/>
			<path class="st0" d="M33.22,38.37l0-1.93l-0.95,1.59h-0.33l-0.95-1.55v1.89h-0.7v-3.22h0.62l1.21,2l1.19-2h0.62l0,3.22H33.22z"/>
		</g>
	</g>
	<rect x="10.81" y="25.12" class="st0" width="26.47" height="0.57"/>
</g>
</svg>
