<?xml version="1.0" encoding="utf-8"?>
<!-- Generator: Adobe Illustrator 23.0.2, SVG Export Plug-In . SVG Version: 6.00 Build 0)  -->
<svg version="1.1" id="Режим_изоляции"
	 xmlns="http://www.w3.org/2000/svg" xmlns:xlink="http://www.w3.org/1999/xlink" x="0px" y="0px" viewBox="0 0 36.51 36.51"
	 style="enable-background:new 0 0 36.51 36.51;" xml:space="preserve">
<style type="text/css">
	.st0{fill:#FFC709;}
	.st1{fill:#51B848;}
	.st2{fill:#5CCAE7;}
	.st3{fill:#5175BA;}
	.st4{fill:#CB88BB;}
	.st5{fill:#F05E7C;}
	.st6{fill:#FFFFFF;}
</style>
<circle class="st0" cx="18.26" cy="18.26" r="18.26"/>
<g>
	<path class="st6" d="M20.2,9.97h0.24c1.49,0,2.84,0.32,4.05,0.96s2.15,1.55,2.82,2.73c0.67,1.18,1.01,2.52,1.01,4.02
		c0,2.22-0.73,4.03-2.19,5.44c-1.46,1.41-3.43,2.11-5.92,2.11v2.36h-3.78v-2.36h-0.25c-1.51,0-2.87-0.32-4.08-0.95
		s-2.15-1.52-2.82-2.66c-0.67-1.14-1-2.45-1-3.91c0-1.48,0.33-2.81,0.99-3.98c0.66-1.17,1.59-2.08,2.79-2.74
		c1.19-0.66,2.53-0.99,4-1.01h0.37V7.55h3.78V9.97z M16.18,13.13c-1.3,0-2.32,0.4-3.07,1.2c-0.75,0.8-1.12,1.92-1.12,3.37
		c0,1.36,0.37,2.42,1.11,3.2c0.74,0.77,1.78,1.16,3.13,1.16h0.2v-8.92H16.18z M20.2,13.13v8.92h0.26c1.28,0,2.29-0.39,3.03-1.17
		c0.74-0.78,1.11-1.85,1.11-3.21c0-1.42-0.36-2.52-1.09-3.33s-1.76-1.21-3.11-1.21H20.2z"/>
</g>
</svg>
