<?xml version="1.0" encoding="utf-8"?>
<!-- Generator: Adobe Illustrator 23.0.2, SVG Export Plug-In . SVG Version: 6.00 Build 0)  -->
<svg version="1.1" id="Режим_изоляции"
	 xmlns="http://www.w3.org/2000/svg" xmlns:xlink="http://www.w3.org/1999/xlink" x="0px" y="0px" viewBox="0 0 36.51 36.51"
	 style="enable-background:new 0 0 36.51 36.51;" xml:space="preserve">
<style type="text/css">
	.st0{fill:#FFC709;}
	.st1{fill:#51B848;}
	.st2{fill:#5CCAE7;}
	.st3{fill:#5175BA;}
	.st4{fill:#CB88BB;}
	.st5{fill:#F05E7C;}
	.st6{fill:#FFFFFF;}
</style>
<circle class="st4" cx="18.26" cy="18.26" r="18.26"/>
<g>
	<path class="st6" d="M12.01,26.82V8.32h5.86c1.67,0,3.17,0.37,4.49,1.1c1.32,0.73,2.35,1.78,3.09,3.13
		c0.74,1.35,1.11,2.89,1.11,4.61V18c0,1.72-0.36,3.25-1.09,4.59c-0.73,1.34-1.76,2.38-3.08,3.11s-2.82,1.11-4.49,1.12H12.01z
		 M15.94,11.4v12.35h1.9c1.54,0,2.71-0.49,3.52-1.46c0.81-0.97,1.23-2.37,1.24-4.18v-0.98c0-1.88-0.4-3.31-1.2-4.28
		c-0.8-0.97-1.98-1.46-3.52-1.46H15.94z"/>
</g>
</svg>
