<?xml version="1.0" encoding="utf-8"?>
<!-- Generator: Adobe Illustrator 23.0.2, SVG Export Plug-In . SVG Version: 6.00 Build 0)  -->
<svg version="1.1" id="Режим_изоляции"
	 xmlns="http://www.w3.org/2000/svg" xmlns:xlink="http://www.w3.org/1999/xlink" x="0px" y="0px" viewBox="0 0 36.51 36.51"
	 style="enable-background:new 0 0 36.51 36.51;" xml:space="preserve">
<style type="text/css">
	.st0{fill:#FFC709;}
	.st1{fill:#51B848;}
	.st2{fill:#5CCAE7;}
	.st3{fill:#5175BA;}
	.st4{fill:#CB88BB;}
	.st5{fill:#F05E7C;}
	.st6{fill:#FFFFFF;}
</style>
<circle class="st2" cx="18.26" cy="18.26" r="18.26"/>
<g>
	<g>
		<path class="st6" d="M19.29,23.94c1.61-0.67,2.47-2.78,2.58-6.32l0.01-1.97c0-1.65-0.3-2.89-0.89-3.72s-1.42-1.25-2.49-1.25
			c-1.05,0-1.87,0.42-2.47,1.25c-0.6,0.83-0.9,2.07-0.9,3.72v1.17c0,2.02,0.23,3.63,0.68,4.82c0.45,1.19,1.13,1.95,2.01,2.29v3.35
			h-7.11v-3.29h3.01c-1.01-0.88-1.8-1.95-2.38-3.2s-0.87-2.56-0.88-3.91v-1.2c0-1.59,0.34-3.02,1.01-4.29
			c0.68-1.27,1.63-2.25,2.85-2.96c1.22-0.7,2.61-1.05,4.15-1.05c1.53,0,2.9,0.34,4.12,1.03c1.22,0.69,2.17,1.65,2.85,2.89
			c0.68,1.24,1.04,2.63,1.06,4.18v1.35c0,1.39-0.29,2.72-0.88,3.97c-0.58,1.26-1.38,2.32-2.38,3.19h3v3.29h-7V23.94z"/>
	</g>
</g>
</svg>
