<?xml version="1.0" encoding="utf-8"?>
<!-- Generator: Adobe Illustrator 23.0.2, SVG Export Plug-In . SVG Version: 6.00 Build 0)  -->
<svg version="1.1" id="Режим_изоляции"
	 xmlns="http://www.w3.org/2000/svg" xmlns:xlink="http://www.w3.org/1999/xlink" x="0px" y="0px" viewBox="0 0 36.51 36.51"
	 style="enable-background:new 0 0 36.51 36.51;" xml:space="preserve">
<style type="text/css">
	.st0{fill:#FFC709;}
	.st1{fill:#51B848;}
	.st2{fill:#5CCAE7;}
	.st3{fill:#5175BA;}
	.st4{fill:#CB88BB;}
	.st5{fill:#F05E7C;}
	.st6{fill:#FFFFFF;}
</style>
<circle class="st5" cx="18.26" cy="18.26" r="18.26"/>
<g>
	<path class="st6" d="M18.49,6.9c2,0,3.59,0.47,4.76,1.4c1.17,0.94,1.76,2.24,1.76,3.92c0,0.9-0.23,1.71-0.69,2.44
		c-0.46,0.73-1.12,1.31-1.96,1.75c1.14,0.38,2.01,0.98,2.62,1.81s0.91,1.83,0.91,3.01c0,1.84-0.55,3.28-1.65,4.31
		c-1.1,1.03-2.62,1.54-4.54,1.54c-1.46,0-2.76-0.34-3.9-1.03v6.23h-4.01V12.86c0-1.12,0.29-2.14,0.88-3.06s1.39-1.63,2.43-2.14
		S17.25,6.9,18.49,6.9z M20.99,12.51c0-0.74-0.23-1.33-0.69-1.79c-0.46-0.45-1.06-0.68-1.81-0.68c-0.79,0-1.44,0.25-1.94,0.76
		c-0.51,0.51-0.76,1.21-0.76,2.1v10.25c0.76,0.52,1.76,0.78,3,0.78c0.94,0,1.69-0.26,2.25-0.77c0.56-0.52,0.83-1.18,0.83-1.99
		c0-0.97-0.25-1.73-0.76-2.27s-1.25-0.81-2.23-0.81h-1.35v-2.86h1.08C20.2,15.19,20.99,14.28,20.99,12.51z"/>
</g>
</svg>
